<svg xmlns="http://www.w3.org/2000/svg" width="2145.324" height="2241.783" viewBox="0 0 2145.324 2241.783"><g transform="translate(-31.382 -36.003)" opacity="0.215"><g transform="translate(910.448 204.706)"><path d="M515.418,173.67C513.6,155.5,494.954,144.98,479.071,152.3c1.2-8.566-2.218-17.745-9.931-22.333-7.769-4.623-17.639-3.38-24.4,2.155-7.074-35.34-71.1-13.972-66.122,22.974-21.1-10.176-43.665,16.715-24.736,34.265,11.9,11.03,32.866,8.647,47.523,8.9q38.5.66,77.005.251a1.641,1.641,0,0,0,.294-.061C496.455,200.739,517.667,196.058,515.418,173.67Zm-37.935,21.246a1.688,1.688,0,0,0-1.17.233q-37.457.338-74.911-.26c-11.488-.2-24.949.957-35.932-2.837-28.2-9.74-9.548-48.32,14.485-32.345,1.358.9,2.648-.513,2.445-1.782a1.776,1.776,0,0,0-.02-.72c-8.3-35.7,55.771-56.564,59.41-22.049-.827,1.543,1.079,3.394,2.4,2.178a1.346,1.346,0,0,0,1-1.03c13.355-14.1,35.076.219,29.965,18.3a1.712,1.712,0,0,0-.116,2,1.407,1.407,0,0,0,.268.322,1.473,1.473,0,0,0,.158.16,1.553,1.553,0,0,0,.16.091,1.4,1.4,0,0,0,.408.189,1.7,1.7,0,0,0,1.888-.618,22.366,22.366,0,0,1,33.925,15.415C515.676,193.791,493.778,197.562,477.483,194.916Z" transform="translate(-268.545 -114.081)" fill="#0d64ae"/><g transform="translate(0 217.924)"><path d="M369.18,224.581a1.669,1.669,0,0,0-1.948-1.592,1.6,1.6,0,0,0-1.417-.955,363.573,363.573,0,0,0-54.674,1.336,1.022,1.022,0,0,0-.111.034,1.7,1.7,0,0,0-2.839,1.214q.243,51.6,3.465,103.1a1.656,1.656,0,0,0,1.421,1.559,1.8,1.8,0,0,0,1.5,2.445,262.81,262.81,0,0,0,53.314-1.018,1.709,1.709,0,0,0,.391-.13,1.672,1.672,0,0,0,2.457-1.442Q371.108,276.84,369.18,224.581Zm-1.8,102.812a262.742,262.742,0,0,1-52.45.985,1.619,1.619,0,0,0,.093-.661q-3.157-50.461-3.441-101.015a363.89,363.89,0,0,1,54.232-1.3c.01,0,.016,0,.024,0Q367.7,276.379,367.379,327.392Z" transform="translate(-308.19 -221.564)" fill="#0d64ae"/><path d="M336.954,224.755q-7.722.626-15.442,1.255c-2.145.172-2.163,3.542,0,3.366l15.442-1.253C339.1,227.949,339.118,224.579,336.954,224.755Z" transform="translate(-296.161 -218.292)" fill="#0d64ae"/><path d="M332.324,267.172c-2.571-1.715-5.235-1-7.38.62a1.5,1.5,0,0,0-.377.061,5.508,5.508,0,0,0-2.514,8.041c1.969,3.356,6.506,3.165,9.316,1.067C334.368,274.724,336.008,269.625,332.324,267.172Zm-3,7.133c-1.178.86-3.254,1.409-4.272.02a2.841,2.841,0,0,1-.438-1.488,1.713,1.713,0,0,0,.57-.531c.981-1.446,2.648-3.244,4.609-2.646C332.249,270.41,330.714,273.285,329.319,274.3Z" transform="translate(-294.797 -175.719)" fill="#0d64ae"/><path d="M355.449,233.77a1.724,1.724,0,0,0-1.65-1.588c1.433-.8,1.235-3.382-.661-3.149q-19.224,2.375-38.545,3.745a8.013,8.013,0,0,0-2.928,2.4,355.167,355.167,0,0,0,4.39,62.257,1.314,1.314,0,0,0,1.178,1.19,1.785,1.785,0,0,0,2.058,1.49,333.5,333.5,0,0,1,37.481-4.268,1.712,1.712,0,0,0,1.685-1.683Q358,263.91,355.449,233.77Zm-.545,50.319c-.844,9.967-5.714,8.735-14.791,9.7-6.981.74-13.9,1.77-20.819,2.944a1.865,1.865,0,0,0,.006-.187,350.087,350.087,0,0,1-4.276-60.434q18.88-1.35,37.661-3.658a1.361,1.361,0,0,0-.6,1.32C353.458,250.028,356.286,267.794,354.9,284.089Z" transform="translate(-304.677 -213.905)" fill="#0d64ae"/></g><g transform="translate(283.369 217.924)"><path d="M508.943,224.581a1.669,1.669,0,0,0-1.948-1.592,1.6,1.6,0,0,0-1.417-.955A363.572,363.572,0,0,0,450.9,223.37a1.059,1.059,0,0,0-.114.034,1.7,1.7,0,0,0-2.839,1.214q.246,51.6,3.467,103.1a1.654,1.654,0,0,0,1.421,1.559,1.8,1.8,0,0,0,1.5,2.445,262.788,262.788,0,0,0,53.312-1.018,1.694,1.694,0,0,0,.393-.13,1.672,1.672,0,0,0,2.457-1.442Q510.871,276.84,508.943,224.581Zm-1.8,102.812a262.725,262.725,0,0,1-52.448.985,1.691,1.691,0,0,0,.093-.661q-3.157-50.461-3.443-101.015a363.912,363.912,0,0,1,54.234-1.3c.01,0,.016,0,.024,0Q507.466,276.379,507.14,327.392Z" transform="translate(-447.951 -221.564)" fill="#0d64ae"/><path d="M476.717,224.755q-7.722.626-15.444,1.255c-2.143.172-2.163,3.542,0,3.366l15.444-1.253C478.862,227.949,478.88,224.579,476.717,224.755Z" transform="translate(-435.921 -218.292)" fill="#0d64ae"/><path d="M472.086,267.172c-2.573-1.715-5.237-1-7.38.62a1.532,1.532,0,0,0-.379.061,5.509,5.509,0,0,0-2.512,8.041c1.967,3.356,6.5,3.165,9.316,1.067C474.13,274.724,475.77,269.625,472.086,267.172Zm-3,7.133c-1.178.86-3.254,1.409-4.274.02a2.84,2.84,0,0,1-.436-1.488,1.708,1.708,0,0,0,.568-.531c.981-1.446,2.65-3.244,4.609-2.646C472.009,270.41,470.476,273.285,469.081,274.3Z" transform="translate(-434.557 -175.719)" fill="#0d64ae"/><path d="M495.211,233.77a1.724,1.724,0,0,0-1.65-1.588c1.433-.8,1.235-3.382-.661-3.149q-19.224,2.375-38.545,3.745a8.012,8.012,0,0,0-2.928,2.4,355.155,355.155,0,0,0,4.39,62.257,1.312,1.312,0,0,0,1.178,1.19,1.784,1.784,0,0,0,2.058,1.49,333.449,333.449,0,0,1,37.481-4.268,1.709,1.709,0,0,0,1.683-1.683Q497.759,263.91,495.211,233.77Zm-.545,50.319c-.843,9.967-5.716,8.735-14.793,9.7-6.979.74-13.9,1.77-20.819,2.944a1.429,1.429,0,0,0,.008-.187,349.893,349.893,0,0,1-4.276-60.434q18.877-1.35,37.661-3.658a1.353,1.353,0,0,0-.6,1.32C493.22,250.028,496.046,267.794,494.665,284.089Z" transform="translate(-444.437 -213.905)" fill="#0d64ae"/></g><path d="M379.615,161.469q-15.638,36.435-32.732,72.2l-5.361-2.587a1.7,1.7,0,0,0-2.474,1.006,67.088,67.088,0,0,0-1.146,17.343,1.729,1.729,0,0,0,.16,2.449c.014.14.012.274.028.416a1.919,1.919,0,0,0,2.184,1.646,1.683,1.683,0,0,0,2.194-.1,119.045,119.045,0,0,1,10.634-9.016c1.725-.811,3.473-1.6,5.276-2.336,1.192-.487,1.851-2.378.4-3.078l-8.876-4.282q17.01-35.659,32.617-71.961C383.368,161.2,380.469,159.482,379.615,161.469Z" transform="translate(-278.109 -66.296)" fill="#0d64ae"/><path d="M483.128,249.563q-19.635-34.449-37.858-69.649l5.3-2.717a1.705,1.705,0,0,0,.687-2.581,67.161,67.161,0,0,0-13.142-11.372,1.728,1.728,0,0,0-2.05-1.348c-.122-.073-.227-.154-.351-.229a1.916,1.916,0,0,0-2.628.75,1.684,1.684,0,0,0-1.245,1.811,118.877,118.877,0,0,1,.781,13.921c-.393,1.865-.819,3.735-1.318,5.618-.331,1.243.781,2.909,2.212,2.176l8.769-4.5q18.187,35.072,37.736,69.412C481.08,252.718,484.2,251.44,483.128,249.563Z" transform="translate(-181.749 -65.444)" fill="#0d64ae"/><path d="M364.642,254.76q39.509-3.342,79.11-5.083l.239,5.949a1.705,1.705,0,0,0,2.052,1.709,67.19,67.19,0,0,0,15.843-7.147,1.727,1.727,0,0,0,2.084-1.3c.118-.077.237-.14.355-.219a1.922,1.922,0,0,0,.426-2.7,1.684,1.684,0,0,0-1.121-1.888,119.211,119.211,0,0,1-12.96-5.142c-1.529-1.141-3.045-2.313-4.544-3.558-.992-.821-2.97-.515-2.905,1.093l.4,9.848q-39.47,1.764-78.844,5.073C362.639,251.577,362.487,254.943,364.642,254.76Z" transform="translate(-251.772 10.107)" fill="#0d64ae"/></g><g transform="translate(1029.834 1398.834)"><path d="M381.819,40.793c-30.583-13.489-66.355-4.079-84.313,24.6-8.568,13.682-12.236,30.236-9.264,46.175,4.373,23.458,24.407,47.521,11.638,71.1a11.934,11.934,0,0,0-13.169,10.829,15.156,15.156,0,0,0,.28,5.065,1.675,1.675,0,0,0-.416.126,11.327,11.327,0,0,0-6.1,12.623,10.188,10.188,0,0,0-6.145,10.961,12.332,12.332,0,0,0,1.472,4.489c-.012,9.85,3.893,20.936,12.8,26.165,9.754,5.724,19.963-.438,27.341-7.123a1.465,1.465,0,0,0,.515-1.091c5.217-.748,8.99-3.751,8.868-10.821a1.566,1.566,0,0,0-.3-.9c.229-.065.47-.107.691-.185,4.789-1.685,4.12-6.93,3.913-11.356a13.252,13.252,0,0,0,4.31-1.934c5.032-3.518,5.774-9.582,1.948-13.643a90.742,90.742,0,0,1,29.636-26.007c9.56-5.253,19.973-8.966,28.963-15.247,15.012-10.492,24.655-27.153,27.749-45.084C427.8,87.258,412.171,54.181,381.819,40.793ZM287.235,247.647c-4.631-4.313-7.029-10.243-7.8-16.374a50.3,50.3,0,0,0,10.44,6.851c4.6,2.451,14.049,6.243,22.039,6.721C304.706,250.865,295.377,255.23,287.235,247.647Zm34.727-13.763c.247,14.422-22.276,5.314-27.647,2.733-5.76-2.77-26.719-16.435-12.79-22.165,2.672,5.671,8.718,8.83,14.258,11.17,6.247,2.638,17.923,8.2,26.26,7.822A1.644,1.644,0,0,0,321.962,233.884Zm-1.3-4.456c-3.984.428-9.736-1.93-13.574-3.208a101.34,101.34,0,0,1-12.794-4.87c-5.079-2.512-19.022-12.565-6.229-19.639,2.938,6.372,9.878,10.912,16.078,13.757,6.008,2.757,14.574,6.815,22.092,6.476.03,1.2.067,2.395.028,3.593Q325.4,231.108,320.659,229.428Zm-.817-11.916q-2.491-.6-4.915-1.431a81.91,81.91,0,0,1-10.484-4.185,34.935,34.935,0,0,1-8.753-5.507q-1.691-1.983-3.384-3.964-5.915-8.811,5.63-15.008a1.869,1.869,0,0,0,1.03.779c4.016,13.465,20.883,15.681,32.526,19.065a1.675,1.675,0,0,0,.689.766C329.407,216.216,325.3,219.408,319.841,217.512Zm-10.884-21.575A135.871,135.871,0,0,0,323.937,123.3c13-5.928,25.989,5.464,39.107,13.615-17.22,18.156-27.736,41.885-37.475,65.315C319.868,200.793,313.651,199.082,308.958,195.937Zm103.973-58.214c-10.476,21.5-29.521,28.546-49.107,39.227a94.127,94.127,0,0,0-30.812,27.171,1.469,1.469,0,0,0-.207.053.631.631,0,0,0-.164-.087c-1.184-.349-2.474-.683-3.8-1.022,9.6-23.087,19.965-46.584,37.138-64.39,5.793,3.327,11.612,5.726,17.469,5.407,2.155-.116,2.167-3.483,0-3.366-5.055.274-10.142-1.533-15.259-4.213a93.277,93.277,0,0,1,17.054-13.276c1.855-1.115.164-4.029-1.7-2.907a96.5,96.5,0,0,0-18.408,14.493c-13.617-7.92-27.455-20.348-41.52-15.008a142.243,142.243,0,0,0-2.182-14.612c-.434-2.121-3.68-1.225-3.248.894a136.743,136.743,0,0,1,2.22,15.271,29.05,29.05,0,0,0-5.9,4.568,1.684,1.684,0,0,0,2.38,2.38,27.622,27.622,0,0,1,3.8-3.159,132.392,132.392,0,0,1-14.408,68.636,14.7,14.7,0,0,1-4.118-6.612,1.575,1.575,0,0,0-.551-.807c.107-.172.195-.347.3-.521a1.883,1.883,0,0,0,.854-1.486c15.561-28.349-13.591-57.537-12.125-86.831C292.731,55.7,334.486,28.8,373.593,41.247,413.349,53.9,430.907,100.826,412.931,137.723Z" transform="translate(-274.24 -34.737)" fill="#0d64ae"/></g><path d="M695.78,735.328c-.9-17.031-1.192-34.8-4.3-51.6-1.709-9.262-5.42-16.508-15.172-18.7-16.924-3.8-36.893-1.529-54.173-1.521-21.08.008-42.16.375-63.24.669-9.657.136-41.639-4.012-56.28,4.114a1.475,1.475,0,0,0-1.363.852c-4.84,3.216-7.289,8.076-5.468,15.373a1.57,1.57,0,0,0,.428.744q1.609,38.977,3.22,77.952c.734,17.743-1.381,32.256,18.6,36.777,50,11.316,105.091,5.128,155.608,1.47a1.735,1.735,0,0,0,1.612-1.837,1.668,1.668,0,0,0,.88.357C706.574,802.715,696.65,751.719,695.78,735.328ZM680.367,671.82c3.7,2.51,6.5,6.4,7.743,12.575,2.289,11.378,2.565,23.422,3.354,35,.683,10.01,5.081,37.854,1.993,57.233a713.585,713.585,0,0,0-58.47-62.938l19.513-17.97c7.248-6.675,14.61-13.244,21.751-20.032A43.476,43.476,0,0,0,680.367,671.82Zm-137.979-4.047q19.26-.268,38.519-.535c23.817-.322,47.645-.61,71.462-.063,8.915.2,18.677-.207,25.865,3.392-3.132,2.2-8.558,6.6-8.317,6.381q-3.957,3.64-7.911,7.283-10.873,10.015-21.749,20.03-9.887,9.105-19.775,18.209c-2.771,2.553-6.362,7.6-9.888,9.106-6.287,2.693-10.436-1.166-15.61-4.025q-10.474-5.788-20.75-11.908a1.75,1.75,0,0,0-2.64-1.559q-33.786-20.227-65.548-43.606C516.52,666.05,535.129,667.875,542.388,667.773Zm-39.476,98.116-.663-16.068-2.768-66.955a1.568,1.568,0,0,0-.813-1.346,9.4,9.4,0,0,1,4.138-9.256q32.4,23.856,66.878,44.49c-16.573,25.593-40.863,47.74-61.418,70.2C503.244,778.78,503.295,775.181,502.912,765.889ZM676.139,796.61a1.44,1.44,0,0,0-1.588,1.707,1.459,1.459,0,0,0-.9-.227c-43.135,3.124-86.567,6.269-129.739,2.034-6.871-.675-13.732-1.492-20.543-2.62-8.055-1.334-9.177-1.32-13.246-7.591,20.91-22.933,45.548-45.311,62.462-71.444q16.964,10.076,34.4,19.391a1.735,1.735,0,0,0,2.04-.264l23.487-21.628a713.574,713.574,0,0,1,60.122,64.881C690.277,790.724,685.407,797.445,676.139,796.61Z" transform="translate(950.099 1450.143)" fill="#0d64ae"/><g transform="translate(543.73 1259.324)"><path d="M395.2,312.188c1.807-.939.144-3.71-1.782-2.847-28.793,12.921-57.59,25.843-86.109,39.358q-20.775,9.845-41.317,20.17c-15.083,7.613-29.754,16.06-46.586,19a1.422,1.422,0,0,0-1.131,1.942c-1.519.3-1.957,2.8-.134,3.272q29.035,7.582,57.476,17.112a1.755,1.755,0,0,0-.2.633q-2.281,21.253-2.532,42.606c-.02,1.6,2.386,2.38,3.135.847.051-.1.093-.2.142-.306a1.5,1.5,0,0,0,1.06.057,37.844,37.844,0,0,0,10.452-5.067c2.143,14.7,4.379,29.375,6.849,44.02.251,1.5,1.837,1.474,2.721.663a1.491,1.491,0,0,0,1.944-.687c31.427-56.949,61.071-114.916,91.37-172.471a1.659,1.659,0,0,0,.1-.349c1.853-1.713,3.721-3.412,5.561-5.14A1.655,1.655,0,0,0,395.2,312.188ZM284.206,425.02c.022.17.051.339.073.509q-3.47,10.173-7.84,19.953.49-16.508,2.182-32.937a1.667,1.667,0,0,0,.4-.209q35.522-26.058,69.1-54.518c-21.482,20.715-43.43,40.976-63.09,63.476a1.857,1.857,0,0,0-1.044,1.172l-.041.045A1.731,1.731,0,0,0,284.206,425.02Zm-6.324,25.212c2.691-5.764,5.2-11.591,7.425-17.546.58,4.181,1.219,8.353,1.821,12.53A33.753,33.753,0,0,1,277.882,450.232Zm19.448,39.113c-2.382-14.227-4.558-28.483-6.644-42.752a1.417,1.417,0,0,0-.28-1.936c-.908-6.249-1.845-12.492-2.7-18.749.055-.16.116-.318.17-.479a1.42,1.42,0,0,0-.476-1.663l-.008-.057c29.951-34.281,65.213-63.362,96.005-96.814C354.911,381.14,326.893,435.684,297.33,489.345Zm84.01-165.17a1257.333,1257.333,0,0,1-103.069,84.55,1.634,1.634,0,0,0-1.154-1.573q-27.162-9.118-54.849-16.437c28.752-5.649,55.708-24.32,81.849-36.785,28.387-13.538,57.067-26.449,85.758-39.326Q385.667,319.448,381.34,324.175Z" transform="translate(-180.258 -309.177)" fill="#0d64ae"/><path d="M359.79,663.348c-49,25.752-109.271-15.606-114.474-68.068-.1-1-.156-2.017-.215-3.035a40.655,40.655,0,0,0,13.67-.1c15.48-2.774,42.252-24.636,24.772-41.07-16.242-15.273-35.161,4.381-39.569,19.87a70,70,0,0,0-2.622,16.9c-13.031-3.814-24.608-14.039-30.985-26.457-10.647-20.74-9.911-47.854-2.309-69.453,4.2-11.934,11.383-22.917,21.382-30.755,2.35,13.157,9.527,24.539,25.085,22.982,14.87-1.486,28.673-24.691,12.852-34.168-11.322-6.784-24.784-2.352-35.962,5.529-.641-8.954,1.383-18.327,4.2-26.591,7.471-21.909,23.548-39.326,44.1-49.622,1.936-.971.233-3.877-1.7-2.907-23.775,11.91-41.72,33.42-47.906,59.479a66.152,66.152,0,0,0-1.221,21.506,73.279,73.279,0,0,0-16.147,17.22c-15.176,23.477-18.361,58.212-7.382,83.945,6.577,15.419,19.89,28.819,35.991,32.931,1.073,55.68,68.473,101.924,120.135,74.773C363.407,665.248,361.708,662.34,359.79,663.348ZM265.678,452.9c14.438,10.525-1.462,25.387-11.6,26.55-11.938,1.369-19.393-6.823-21.887-18.13-.144-.659-.221-1.336-.331-2.005C239.781,453.779,256.155,445.957,265.678,452.9Zm-14.7,109.521c5.016-8.8,13.67-15.008,23.787-11.739,17.275,5.584,7.329,26.506-3.139,33.085a36.023,36.023,0,0,1-26.636,4.976C244.894,579.656,246.51,570.246,250.975,562.418Z" transform="translate(-198.849 -240.303)" fill="#0d64ae"/></g><g transform="translate(1845.283 1468.54)"><path d="M740.016,660.429c-6.413-23.846-17.364-46.187-28.126-68.307a59.5,59.5,0,0,0,22.895-17.862c10.736-14.193,20.555-35.995,20.125-54.165-.975-41.187-50.508-65.227-86.306-64.133a1.529,1.529,0,0,0-.927.347c-35.583,10.054-69.011,50.126-61.442,88.453,7.4,37.487,44.476,58.729,80.977,54.232,1.6-.2,3.191-.452,4.787-.736,2.1,23.175,4.264,46.726,11.863,68.869,3.822,11.137,11.875,33.59,27.775,28.829C746.921,691.381,743.069,671.781,740.016,660.429ZM682.7,596.049c-35.318,2.49-70.063-20.364-73.948-57.182-3.68-34.888,27.889-70.355,60.057-79.384a1.583,1.583,0,0,0,.314-.162c34.206-.884,81.109,21.757,82.423,60.943.545,16.281-8.258,34.817-16.912,48.275C723.392,586.025,702.888,594.628,682.7,596.049Zm36.678,93.369c-11.036-6.908-15.279-31.712-17.783-43.594-3.348-15.882-4.815-32.079-6.275-48.223a82,82,0,0,0,13.507-4.152c.01.02.008.041.018.063,7.135,14.667,14.31,29.357,20.188,44.585,2.66,6.892,5.073,13.876,7.1,20.981a91.813,91.813,0,0,1,2.676,11.243,18.077,18.077,0,0,1,.584,8.205Q740.684,692.437,719.378,689.418Z" transform="translate(-605.155 -455.925)" fill="#0d64ae"/><path d="M723.536,505.362c-6.506-23.661-43.288-49.587-67.725-39.506a1.647,1.647,0,0,0-1.02,1.265c-27.072,9.424-44.461,36.931-37.586,65.669,6.871,28.716,35.224,47.383,64.323,40.794C708.411,567.5,731.024,532.588,723.536,505.362ZM678.894,570.6c-26.179,4.828-50.99-11.322-57.957-36.923-7.7-28.325,9.694-55.771,37.067-64.133a1.476,1.476,0,0,0,1.079-1.186c22-6.709,54.1,16.023,60.736,36.165C728.536,531,705.2,565.752,678.894,570.6Z" transform="translate(-594.32 -448.018)" fill="#0d64ae"/><path d="M685.028,480.873a44.758,44.758,0,0,0-53.308-5.61c-1.869,1.107-.065,3.95,1.8,2.849a41.293,41.293,0,0,1,49.218,5.231A1.685,1.685,0,0,0,685.028,480.873Z" transform="translate(-578.668 -442.529)" fill="#0d64ae"/></g><g transform="translate(2036.292 1704.367)"><path d="M789.249,640.226c-3.976-3.114-8.716-3.763-13.155-1.127-6.034,3.585-6.271,14.564-11.533,17.729a1.84,1.84,0,0,0-3.08,1.077c.314-2.344-7.232-8.23-9.057-10.316a94.036,94.036,0,0,1-11.271-15.48c-3.293-5.821-15.285-32.657-.927-33.45,5.983,2.916,15.225,2.23,19.815-2.459,6.413-6.551,5.026-18.68,3.092-26.634-3.577-14.714-22.432-41.434-38.639-24.428a1.563,1.563,0,0,0-1.064.448c-30.423,29.123-30.411,74.7-8.905,109.109,18.779,30.042,56.2,52.1,90.059,31.611a1.528,1.528,0,0,0,.768-1.474A1.5,1.5,0,0,0,807,683.217C806.264,668.794,801.266,649.64,789.249,640.226ZM802.885,683.4c-33.935,20.537-70.69-4.116-87.842-34.425-18.378-32.475-17.228-73.668,10.284-100.5a1.455,1.455,0,0,0,1.115-.517c13.443-14.8,28.744,7.5,32.489,19.1a44.477,44.477,0,0,1,2.311,15.229,20.4,20.4,0,0,1-2.273,9.754c-5.028,4.215-10.174,5.531-15.433,4.041a1.673,1.673,0,0,0-1.267-.756c-.341-.032-.649-.034-.973-.051-.365-.158-.73-.282-1.1-.468a1.451,1.451,0,0,0-2.214.608c-15.462,2.366-4.955,29.216.264,38.4,1.711,3.011,18.929,27.043,24.756,26.54a1.371,1.371,0,0,0,1.425.225c10.269-3.712,8.572-29.056,24.448-16.054C799,652.813,803,670.9,803.629,683.161A1.657,1.657,0,0,0,802.885,683.4Z" transform="translate(-699.363 -539.663)" fill="#0d64ae"/><path d="M738.087,566.324c-2.034-.754-2.911,2.5-.894,3.246a18.052,18.052,0,0,1,11.61,18.219c-.144,2.163,3.224,2.155,3.366,0A21.439,21.439,0,0,0,738.087,566.324Z" transform="translate(-661.665 -512.384)" fill="#0d64ae"/><path d="M740.1,556.016c-2.044-.734-2.924,2.518-.894,3.246,22.724,8.141,28.3,32.388,29.054,53.932.075,2.159,3.443,2.169,3.366,0C770.813,589.949,764.236,564.66,740.1,556.016Z" transform="translate(-659.603 -522.97)" fill="#0d64ae"/><path d="M741.023,544.121a1.685,1.685,0,0,0,0,3.368c39.814.266,55.925,41.027,48.5,75.055-.462,2.113,2.784,3.015,3.246.9C800.687,587.153,783,544.4,741.023,544.121Z" transform="translate(-658.225 -535.083)" fill="#0d64ae"/></g><path d="M314.7,173.28a1.663,1.663,0,0,0,1.557.059c27.388-12.751,38.855-48.906,34.405-77.168-5.27-33.444-31.566-51.969-63.3-57.434-32.412-5.582-67.952,2.092-92.591,24.628C170.795,85.3,162.6,119.873,179.3,148.63c18.5,31.86,56.732,44.232,91.048,32.682l.024-.014c12.883,21.336,35.157,29.2,58.922,32.457a1.692,1.692,0,0,0,1.3-3.076A40.156,40.156,0,0,1,314.7,173.28Zm-41.864,5.614a1.545,1.545,0,0,0-2.019-.653,1.428,1.428,0,0,0-1.356-.176c-37.45,12.607-81.908-5.509-93.451-45.2-12.015-41.317,21.526-76.869,58.766-87.946,32.947-9.8,80.817-5.785,101.95,24.888,20.77,30.145,13.061,84.092-22.037,100.561-.71-1.184-2.739-1.4-3.011.278-2.409,14.868,2.159,28.76,12.565,38.93C303.409,205.97,284.149,198.229,272.832,178.894Z" transform="translate(282.669 11.412)" fill="#0d64ae"/><g transform="translate(1551.414 1566.193)"><path d="M721.278,738.715a38.661,38.661,0,0,0,10.942-2.259,1.706,1.706,0,0,0,1.006-2.474,54.378,54.378,0,0,0-22.118-20.527q4.188-1.189,8.376-2.372c1.206-.343,1.654-1.012.742-1.906-13.1-12.83-28.6-21.573-46.767-21.573h-.02c2-6.083,1.581-10.983-4.094-14.4.373-2.893-.764-5.9-4.606-7.4a37.828,37.828,0,0,0,2.184-4.531,1.7,1.7,0,0,0,2.092-1.235,16.53,16.53,0,0,0,.043-3.643c10.407,6.51,21.015,12.506,31.944,18.1,1.212.62,2.982-.438,2.474-1.914-6.377-18.487-13.39-37.388-22.65-54.658-6.514-12.157-19.29-14.59-31.873-18.955a1.445,1.445,0,0,0-1.174.063,310.875,310.875,0,0,0-29.884-53.454c-22.39-31.595-51.872-57.495-87.922-72.182a1.693,1.693,0,0,0-2.131,1.622,394.21,394.21,0,0,0,5.906,61.728,1.449,1.449,0,0,0,.17.951c7.08,39.166,20.735,77.437,43.186,109.626-3.844,13.58-11.431,26.315-1.04,37.793,15.048,16.62,31.595,31.968,48.555,46.6.961.829,3.08.4,2.873-1.19a327.552,327.552,0,0,0-8.534-43.095,73.764,73.764,0,0,0,13.349-1.443c.111,5.474,3.169,7.692,7.188,8.12a8.309,8.309,0,0,0,5.87,8.193,11.038,11.038,0,0,0,4.71.466,56.09,56.09,0,0,0-.795,17.729,1.708,1.708,0,0,0,2.873,1.19c4.771-4.112,3.755-1.4,5.121,4.019,1.241,4.917,2.24,9.868,3.56,14.771a301.419,301.419,0,0,0,9.5,28.845,1.7,1.7,0,0,0,3.248,0c.752-2.163,1.7-8.522,4.491-8.708.545-.034,8.82,8.355,9.56,8.952a89.7,89.7,0,0,0,16.938,10.748,93.1,93.1,0,0,0,40.988,9.225,1.713,1.713,0,0,0,1.624-2.131A81.986,81.986,0,0,0,721.278,738.715ZM668.562,610.1c7.366,3.792,9.223,9.063,12.7,16.415a455.532,455.532,0,0,1,17.554,43.006c-9.724-5.1-19.217-10.529-28.533-16.374a1.451,1.451,0,0,0-1.705.039c-1.287-5.906-4.491-12.139-6.255-17.191-3.576-10.253-7.427-20.413-11.677-30.409-.418-.979-.856-1.948-1.279-2.926C655.819,604.868,662.51,606.983,668.562,610.1ZM536.615,534.554c-1.717-9.76-2.987-19.6-3.877-29.468q-.623-6.931-.993-13.88-.2-3.467-.314-6.94-2.488-6.095,2.587-4.5c5.788-1.385,17.36,7.615,21.946,10.486a187.536,187.536,0,0,1,22.869,16.954,1.567,1.567,0,0,0-.359.627l-.134.487a1.648,1.648,0,0,0,1.738,2.074,8.891,8.891,0,0,0-2.739,5.58,25.255,25.255,0,0,1-4.41,5.935,43.2,43.2,0,0,1-9.394,7.208c-8.242,4.884-17.289,7.252-26.8,6.058C536.694,534.968,536.652,534.761,536.615,534.554ZM623.5,726.262c-11.35-9.921-22.394-20.176-32.984-30.911-5.975-6.058-13.041-11.4-14.969-19.793-1.8-7.822,1.6-16.808,4.061-24.813a197.6,197.6,0,0,0,33.166,35.721,1.7,1.7,0,0,0,1.884.229,1.554,1.554,0,0,0,.854.608,1.712,1.712,0,0,0,.02.3A321.565,321.565,0,0,1,623.5,726.262Zm-7.522-42.2a1.687,1.687,0,0,0-.728.138c-.039-.039-.051-.081-.1-.118-29.955-25-51.01-59.567-64.325-95.955a311.864,311.864,0,0,1-13.465-49.565c11.316,1.052,22.181-2.281,31.536-8.893,5.626-3.976,13.615-11.393,13.716-19.12a226.3,226.3,0,0,1,33.624,38.527,309.6,309.6,0,0,1,27.534,49.157c4.7,10.373,8.923,20.959,12.818,31.656q2.114,5.812,4.094,11.67c.381,1.119,3.733,9.671,5.931,14.547a1.609,1.609,0,0,0-1.831,1.131C658.451,677.3,635.053,684.552,615.977,684.066Zm24.432,7.338c-2.833-.221-4.884-1.861-4.767-6.176,10.861-2.766,20.928-8.254,27.286-17.078a1.521,1.521,0,0,0,.353.2c9.245,3.11-6.685,16.693-8.491,17.944-2.261,1.567-7.964,4.61-12.567,5.069A1.752,1.752,0,0,0,640.408,691.4Zm2.419,2.707a33.524,33.524,0,0,0,14.519-5.5c3.09-2.228,8.656-7.709,11-12.94,6.4,4.775.726,13.591-4.347,17.08a56.921,56.921,0,0,1-6.446,3.692c-2.135,1.087-4.278,2.342-6.695,2.642C647.892,699.454,642.087,699.162,642.827,694.11Zm94,91.8c-21.628,1.786-46.039-15.758-59.234-30.979a1.7,1.7,0,0,0-2.814.742q-1.417,4.069-2.832,8.138A304.73,304.73,0,0,1,658.6,714.868c-.247-1.342-1.942-1.494-2.814-.742l-3.435,2.96a49.009,49.009,0,0,1,1.214-14.76,1.568,1.568,0,0,0,.006-.322,48.82,48.82,0,0,0,10.561-5.343,25.351,25.351,0,0,0,8.051-8.327,1.715,1.715,0,0,0,1.275.821,75.126,75.126,0,0,1,29.567,9.793c2.3,1.365,12.1,7.4,11.743,8.69-.815,2.972-6.273,3.057-8.885,3.8-1.744.495-1.44,2.64,0,3.246,7.891,3.329,35.99,21.443,11.127,20.725a1.7,1.7,0,0,0-1.19,2.873,80.4,80.4,0,0,1,19.941,24.154c2.465,4.694,6.425,11.853,6.642,17.485C742.63,785.742,743.585,785.35,736.827,785.91Z" transform="translate(-527.842 -473.303)" fill="#0d64ae"/><path d="M576.658,513.415c-4.771-5.711-14.86-8.747-20.547-3.775a1.771,1.771,0,0,0-.789.345c-8.437,6.693-13.641,18.957-7.066,28.769,5.987,8.929,17.465,10.134,25.245,2.946C581.311,534.483,583.8,521.961,576.658,513.415Zm-9.321,28.456c-7.623,3.6-16.417-1.549-18.329-9.6-1.468-6.184,1.117-12.023,5.146-16.522a1.381,1.381,0,0,0,2.115-.618c4.925-11.271,19.247-1.231,21.007,6.859C578.943,529.658,574.375,538.553,567.337,541.872Z" transform="translate(-509.922 -438.542)" fill="#0d64ae"/><path d="M571.8,535.154a1.685,1.685,0,0,0-1.431.353c-7.808,6.3-11.685,17.141-6.476,26.374,4.679,8.295,15.271,11.7,23.554,6.458C603.975,557.873,587.69,526.519,571.8,535.154Zm9.018,32.1c-7.182,1.227-13.611-3.792-15.436-10.646-1.693-6.36.914-12.411,5.3-16.845a1.686,1.686,0,0,0,.785-.369C585.082,527.792,602.711,563.517,580.816,567.252Z" transform="translate(-493.245 -411.278)" fill="#0d64ae"/></g><g transform="translate(1511.466 464.68)"><path d="M758.308,189.772c-2.255-8.522-5.119-25.431-14.667-29.2a1.817,1.817,0,0,0-1.971-2.457c-24.4,4.313-46.167,15.8-68.036,26.921-10.663,5.424-21.3,10.922-31.656,16.908-14.217,8.213-25.226,15.967-42.489,16.147-28.531.294-88.625-7.1-96.368,32.588-6.553,33.59,26.305,45.056,54.822,48.247.022.053.041.107.063.16a1.807,1.807,0,0,0,3.252.178c3.591.326,7.066.521,10.367.624l-.01.032c-2,17.06-6.016,38.413-2.605,55.432,1.565,7.806,6.06,10.665,14.053,9.728,7.812-.914,12.07-4.248,12.281-12.21.452-17.021-4.418-36.074-7.141-52.791a1.408,1.408,0,0,0-.053-.142c47.381.286,93.7,9.343,133.845,35.814a13.558,13.558,0,0,0,1.762,1.144c.351.237.712.448,1.063.687a1.431,1.431,0,0,0,1.158.243,13.492,13.492,0,0,0,7.39.107c13.623-3.343,20.208-21.707,23.27-33.464,4.8-18.448,6.879-38.3,7.49-57.318C764.747,227.91,763.247,208.436,758.308,189.772Zm-252.325,64.7c2.04-24.608,29.466-30.91,51.452-32.834-5.837,7.25-7.557,21.307-8.209,29.5-1.243,15.571,2.2,30.7,7.713,45.151C533.855,294.115,503.659,282.509,505.983,254.468ZM589.961,335c.529,4.112,1.077,8.228,1.5,12.352q.365,2.752.513,5.523-4.273,14.343-12.929,3.648c-8.021-5.332-6.969-5.831-6.888-14.041q.07-7.111.4-14.219c.442-9.464,1.31-18.886,2.413-28.3,1.671.022,3.295.026,4.83,0,1.774-.026,3.544-.014,5.316-.016a1.694,1.694,0,0,0-.166,1.026C586.8,312.3,588.5,323.629,589.961,335Zm32.053-37.014c-20.5-2.149-40.9-.322-61.4-1.431-4.594-11.737-7.972-23.838-8.26-36.554a80.883,80.883,0,0,1,1.373-17.216,73.46,73.46,0,0,1,2.208-8.576,20.97,20.97,0,0,0,3.319-11.814,1.674,1.674,0,0,0,2.891.065l.235-.4a1.623,1.623,0,0,0,.2-.815c2.421-.152,4.738-.26,6.9-.347,18.152-.722,37.331,3.852,54.293-4.333,37.771-18.225,72.263-45.3,114-54.208-23.572,25.151-30.482,65.2-32.876,98.381-1.391,19.272.039,39.19,6.808,57.428a82.1,82.1,0,0,0,4.144,9.724C687.29,310.911,655.174,301.464,622.014,297.987Zm91.48-69.808c18.15-1.107,18.442,42.456-5.552,38.89a224.755,224.755,0,0,1,2.962-27.8c.606-3.686,1.263-7.421,1.979-11.172A1.62,1.62,0,0,0,713.494,228.18Zm47.268,18.978a306.67,306.67,0,0,1-4.542,42.716,136.646,136.646,0,0,1-4.09,18.195,63.463,63.463,0,0,1-5.091,12.366l-2.378,3.917q-6.353,14.55-17.421,5.089c-9.606-4.075-9.878-5.4-13.067-14.432-1.06-3.009-1.93-6.077-2.7-9.173A126.414,126.414,0,0,1,708.05,282.6c-.233-4.057-.282-8.114-.2-12.167,27.526,3.341,29.079-47,5.679-45.617,4.483-22.175,11.662-44.644,27.412-60.955a1.717,1.717,0,0,0,.355-.554c10.683,2.155,15.281,32.6,16.8,41.3A208.194,208.194,0,0,1,760.761,247.157Z" transform="translate(-502.278 -158.088)" fill="#0d64ae"/><path d="M639.129,183.614c-.975-1.936-3.881-.233-2.908,1.7a81.358,81.358,0,0,1,6.222,57.918c-.539,2.1,2.707,3,3.246.894A85.148,85.148,0,0,0,639.129,183.614Z" transform="translate(-364.849 -132.736)" fill="#0d64ae"/><path d="M650.086,176.4c-1.022-1.91-3.929-.211-2.905,1.7a129.764,129.764,0,0,1,5.612,111.029c-.819,2.005,2.437,2.877,3.246.9A132.916,132.916,0,0,0,650.086,176.4Z" transform="translate(-353.607 -140.131)" fill="#0d64ae"/></g><g transform="translate(2008.233 1274.736)"><path d="M825.251,578.56a1.4,1.4,0,0,0-.03-.164,1.8,1.8,0,0,0-2-2.344c-26.824,4.919-58.9,1.05-70.572-27.309l21.463.535c4.672.118,12.836,2.017,16.981.184,5.527-2.443,1.938-15.287,1.667-19.985a1.587,1.587,0,0,0-.087-.335c.487-1.032.036-2.488-1.409-2.38-10.673.793-21.352,1.17-32.055.951-3.485-.071-11.78,1.056-14.248-1.492-2.246-2.322-1.3-9.414-1.143-13.3a343.51,343.51,0,0,0,49.151-1.03,1.706,1.706,0,0,0,1.683-1.683q-.693-8.911-1.385-17.824A1.74,1.74,0,0,0,792,489.582q-21.088-.739-42.179-.32a1.674,1.674,0,0,0,.523-1.062c3.329-33.411,46-49.855,74.278-45.494a1.777,1.777,0,0,0,1.938-1.146,1.613,1.613,0,0,0,.556-1.186,252.083,252.083,0,0,1,3.948-34.561,1.7,1.7,0,0,0-.774-1.786,1.28,1.28,0,0,0-1.188-1.135c-57.981-8.021-118.156,26.552-122.481,88.542q-9.16-.76-18.341-.616A1.709,1.709,0,0,0,686,491.8a1.871,1.871,0,0,0-.116,1.016q-.082,5.687-.115,11.376c-.012,2.4-.874,6.5.677,8.607,1.474,2,4.327,1.371,6.4,1.158l11.938-1.227-.744,16.318c-4.148.043-8.3.063-12.447.144-1.843.038-3.562-.105-4.538,1.673-1.042,1.908-.114,6.227-.053,8.3q.207,6.834.41,13.666a1.7,1.7,0,0,0,2.131,1.622,48.666,48.666,0,0,1,16.826-2.918c1.146,24.649,23.432,42.239,44.609,51.408,23.505,10.176,49.482,11.478,74.436,6.81a1.382,1.382,0,0,0,1.079-.813,1.721,1.721,0,0,0,1.338-2.04A128.419,128.419,0,0,1,825.251,578.56ZM760.159,602.9c-23.1-7.889-50.443-26.106-50.522-53.2a1.669,1.669,0,0,0-2.328-1.513,1.447,1.447,0,0,0-.168-.038,51.281,51.281,0,0,0-16.423,2.419q-.234-7.837-.47-15.671c-.016-.57-.035-1.14-.051-1.707q-.468-1.645,1.4-.629a22.639,22.639,0,0,1,4.4-.051l9.69-.114a1.672,1.672,0,0,0,1.535-2.265,1.758,1.758,0,0,0,.168-.671l.862-18.931a1.648,1.648,0,0,0-2.743-1.239l-8.889.912c-2.269.233-6.632,1.545-7.5-.807-.76-2.06.016-5.949.035-8.175q.027-3.516.081-7.031a184.789,184.789,0,0,1,18.562.681,1.369,1.369,0,0,0,1.255-.491,1.591,1.591,0,0,0,.8-1.328c3.234-60.463,61.685-94.452,117.771-86.981a258.1,258.1,0,0,0-3.8,33.166C793.24,435.4,750.478,453.1,746.982,488.2a1.387,1.387,0,0,0,.381,1.176c-1.689.476-1.565,3.311.44,3.268q21.091-.447,42.168.264c.442,3.552,2.322,11.115,1.034,13.7-2.068,4.158-11.216,2.96-15.105,3.135-10.776.481-21.542.357-32.313-.195a1.409,1.409,0,0,0-1.387.756,1.58,1.58,0,0,0-1.719,1.618l.079,16.678a1.72,1.72,0,0,0,1.683,1.683,344.52,344.52,0,0,0,47.193-.055q.325,5.635.653,11.273c.164,2.845.918,3.266-1.561,4.365-2.121.943-5.943.253-8.1.2l-28.4-.708a1.489,1.489,0,0,0-1.575,1.338c-1,.051-1.93.817-1.47,2,11.687,30.167,44.251,35.65,72.918,30.95a132.569,132.569,0,0,0,2.476,26.881C802.968,610.514,780.891,609.977,760.159,602.9Z" transform="translate(-685.524 -401.746)" fill="#0d64ae"/></g><g transform="translate(247.456 235.381)"><path d="M219.425,221.914c-4.657-29.073-11.881-78.455-44.257-90.721-21.09-7.992-41.175,9.507-36.544,28.848a1.431,1.431,0,0,0-.176,1.352c7.273,21.905,13.3,44.818,22.021,66.18,3.946,9.663,10.752,18.142,22.335,17.1,34.8-3.128,14.85-56.982,8.3-74.546a1.8,1.8,0,0,0-2.916-.645c-2.082-1.63-4.771-2.65-7.263-1.35-2.447,1.279-3.911,4.617-2.161,7.027a1.755,1.755,0,0,0,.493.454,1.591,1.591,0,0,0,.083.276c5.712,10.663,16.711,32.706,8.5,44.725q-13.762,7.171-18.487-3.457-2.427-4.3-4.574-8.745a152.77,152.77,0,0,1-7.283-17.865,163.239,163.239,0,0,1-7.319-33.953c-1.78-18.765,21.668-16.3,30.837-6.825,3.9,4.031,6.74,9.252,9.325,14.2a182.584,182.584,0,0,1,13.078,32.68c4.659,15.7,19.047,67.356-5.093,74.307a1.55,1.55,0,0,0-1.17,1.4c-18.051,4.986-28.874-19.42-35.236-32.669a136.052,136.052,0,0,1-8.362-21.632c-1.192-4.2-1.318-9.726-3.449-13.564-3.053-5.493-11.168-7.461-10.947.26a1.467,1.467,0,0,0-.26,1.411c7.131,23.917,17.161,74.607,48.711,78.348a31.09,31.09,0,0,0,31.068-16.457C225.8,253.957,221.8,236.727,219.425,221.914Zm-4.57,46.313c-9.164,15.269-29.928,16.824-42.481,5.332-16.881-15.454-23.619-45.842-29.9-67.2a1.576,1.576,0,0,0,.093-.738q5.836-.949,5.535,4.136.909,4.641,2.214,9.189a133.98,133.98,0,0,0,4.665,13.384,165.049,165.049,0,0,0,13.155,25.683c7.151,11.391,17.064,22.447,31.642,17.031a1.68,1.68,0,0,0,1.115-1.446c15.206-5.624,14.227-23.317,13.167-37.353a194.192,194.192,0,0,0-14.369-60.11c-6.026-14.436-14.424-34.665-31.948-37.742-9.813-1.723-18.576,3.806-20.6,12.589a1.346,1.346,0,0,0-.758,1.413q.186,2.062.414,4.16c.022.229.016.448.045.679.008.053.036.089.047.142,2.528,22.662,8.824,48.036,22.633,66.2,7.786,10.237,22.477,10.618,24.977-4.017a1.785,1.785,0,0,0-1.476-2.056c4.349-13.6-4.874-32.3-10.774-43.314a1.641,1.641,0,0,0-.5-.574c-.032-.053-.032-.1-.071-.156-.756-1.042.2-2.293,1.346-2.506,1.74-.324,3.378,1.261,4.424,2.425a1.407,1.407,0,0,0,1.438.468,200.435,200.435,0,0,1,8.556,28.764c1.543,7.6,3.214,16.058,1.052,23.726-4.221,14.985-23.132,20.594-31.905,5.328-10.286-17.893-15.618-40.433-21.7-60.923a2.027,2.027,0,0,0,1-.4,33.46,33.46,0,0,1-2.646-7.471c-6.087-15.249,5.142-31.976,23.4-30.137,14.967,1.508,24.949,13.8,31.425,26.319,10.943,21.169,15.344,45.2,18.858,68.553C218.86,240.464,222.029,256.272,214.855,268.227Z" transform="translate(-137.953 -129.21)" fill="#0d64ae"/></g><g transform="translate(1922.1 963.865)"><path d="M845.034,316.783c-24.442-20.632-57.087-7.263-78.5,10.744-33.633,28.282-62.963,63.634-90.993,97.313a1.7,1.7,0,0,0-.158,2,1.455,1.455,0,0,0-.375.651,93.494,93.494,0,0,0-2.64,22.214,1.638,1.638,0,0,0,.077.375q-12.573,15.051-26.5,28.9a1.7,1.7,0,0,0-.61-.105,1.8,1.8,0,0,0-2.131,2.457,27.837,27.837,0,0,1,2.388,10.462,1.68,1.68,0,0,0,.223.777,1.531,1.531,0,0,0,.452.929L690.3,537.013a1.7,1.7,0,0,0,2.814-.744c.073-.233.116-.45.182-.681a1.594,1.594,0,0,0,1.614-.343,227.184,227.184,0,0,0,32.173-35.569,1.978,1.978,0,0,0,1.385-.918c2.644,2.5,5.332,4.955,8.1,7.325a1.7,1.7,0,0,0,1.884.282,1.6,1.6,0,0,0,2.464.209c26.733-26.583,53.662-52.985,80.195-79.771,19.681-19.87,37.84-42.047,39.312-70.967A44.35,44.35,0,0,0,845.034,316.783Zm-98.179,34.229c22.787-23.1,58.585-57.29,92.909-34.048,20.208,13.686,22.072,40.875,8.337,59.6-9.876,13.467-22.729,25.231-34.381,37.167q-35.48,36.35-73.036,70.57a1.684,1.684,0,0,0-1.273-.4q-29.537-29.683-60.284-58.109Q711.472,387.047,746.855,351.012ZM690.593,532.566l-41.67-41.179a32.165,32.165,0,0,0-1.006-6.561,409.018,409.018,0,0,1,42.505,40.283,1.533,1.533,0,0,0,.728.46A28.377,28.377,0,0,1,690.593,532.566Zm2.062-10.2c-.041.036-.053.077-.089.114a408.785,408.785,0,0,0-43.938-41.426,423.49,423.49,0,0,0,33.393-37.446,469.713,469.713,0,0,0,42.312,39.066,1.622,1.622,0,0,0,.914.351,1.526,1.526,0,0,0-.391,1.012A152.728,152.728,0,0,1,692.655,522.366Zm33.43-25.4c0,.1-.888.2-1,.355a223.458,223.458,0,0,1-30.518,33.908,31.089,31.089,0,0,0,.1-6.168,5.29,5.29,0,0,0,1.071-.314c11.644-9.969,22.242-21.425,30.352-34.247Zm10.294,4.412c-2.072-1.833-3.4-3.656-5.4-5.566-.5-.479-.837-.533-.837-.375V485c0-.438-.432-.862-.18-1.3.791-1.379-1.144-2.644-2.346-2.49a1.778,1.778,0,0,0-.712-.914,471.063,471.063,0,0,1-43.736-40.421,1.662,1.662,0,0,0-2.709.5,1.573,1.573,0,0,0-.27.207c-1.415,1.8-2.891,3.55-4.335,5.322a89.694,89.694,0,0,1,2.192-16.516q30.388,28.141,59.589,57.5Q737.007,494.131,736.379,501.377Zm71.042-65.684q-33.913,33.722-67.829,67.446.63-7.256,1.255-14.515a1.58,1.58,0,0,0,.343-.2q49.056-44.737,94.744-92.962c6.261-6.628,12.767-13.25,17.546-20.831C845.445,398.817,825.584,417.634,807.421,435.693Z" transform="translate(-643.042 -306.35)" fill="#0d64ae"/><path d="M672.4,395.992A133.657,133.657,0,0,0,660.9,385.321a1.719,1.719,0,0,0-2.644.341q-1.891,2.719-3.885,5.363a1.3,1.3,0,0,0-.158,1.454,1.426,1.426,0,0,0-.045,2.3l9.963,8.242a1.82,1.82,0,0,0,2.822-.746,1.475,1.475,0,0,0,.809-.472,12.434,12.434,0,0,1,4.29-3.165A1.7,1.7,0,0,0,672.4,395.992Zm-7.011,3.427a1.576,1.576,0,0,0-.112.193l-8.153-6.744a1.715,1.715,0,0,0,.158-.142c.929-1.231,1.817-2.486,2.711-3.739q4.388,3.726,8.435,7.82A14.667,14.667,0,0,0,665.386,399.418Z" transform="translate(-632.186 -225.689)" fill="#0d64ae"/><path d="M683.293,404.688a120.559,120.559,0,0,1-10.135-8.6,1.728,1.728,0,0,0-2.38,0l-4.864,4.124a1.456,1.456,0,0,0-.483.776,1.685,1.685,0,0,0-.347,2.571,55.4,55.4,0,0,0,9.742,8.374,1.467,1.467,0,0,0,2.2-.564,1.32,1.32,0,0,0,1.4-.182l4.866-3.589A1.713,1.713,0,0,0,683.293,404.688Zm-6.565,3.587a1.8,1.8,0,0,0-.483.531,51.483,51.483,0,0,1-7.619-6.5q1.655-1.405,3.311-2.808,3.747,3.455,7.764,6.585Z" transform="translate(-620.862 -214.637)" fill="#0d64ae"/></g><g transform="translate(42.773 1966.596)"><path d="M425.1,884.618q-10.553-5.42-21.471-10.054a1.71,1.71,0,0,0-2.472,1.9,76.761,76.761,0,0,1,1.109,8.939l-31.252.134q.182-19.936.055-39.869a1.8,1.8,0,0,0,.41-2.117,3.368,3.368,0,0,0-.418-.6c-.051-7.471-.176-14.941-.292-22.408a1.472,1.472,0,0,0-.008-.709q-.833-53.277-3.769-106.5a1.678,1.678,0,0,0-1.667-1.6q-.246-1.569-.491-3.139a1.69,1.69,0,0,0-1.624-1.235q-19.936.024-39.8-1.553c-1.478-.118-1.914,1.407-1.373,2.445a1.468,1.468,0,0,0-.2.87q1.46,20.106,2.48,40.234c-1.811-.367-2.522,2.565-.614,3.293.274.1.539.219.811.324q3.239,65.318,2.009,130.755c-.041,2.167,3.325,2.167,3.366,0,.1-5.381.156-10.762.213-16.143,12.715,3.808,26.408,9.01,37.556,16.161-.006.6,0,1.213-.01,1.817q-40.7.176-81.4.349a1.464,1.464,0,0,0-.667-.653,244.121,244.121,0,0,1-26.1-14.937q.608-7.442,1.04-14.888,21.192,13.269,42.677,26.046c0,.75,1.062,1.5,1.056,2.255-.014,2.165,4.428,2.169,4.428,0v-.872c0-.414.7-2.24-.691-3.066-.122-.073-.77-.146-.89-.219.024-5.3-.243-10.592-.262-15.886a1.631,1.631,0,0,0-.14-2.735q-.286-61.3-4.461-122.485a1.65,1.65,0,0,0-.866-1.332c-.138-.272-.3-.543-.436-.813a26.06,26.06,0,0,1-2.812-1.981L256.8,736.66a1.625,1.625,0,0,0-.9.339,1.375,1.375,0,0,0-2.05.653q-.766,1.724-1.529,3.451a1.818,1.818,0,0,0,2.072,2.488c.31,2.818.547,5.639.819,8.457a1.567,1.567,0,0,0,.166,1.715q2.7,28.655,2.956,57.363a1.714,1.714,0,0,0,0,1.991q.082,19.163-.921,38.324a1.727,1.727,0,0,0-.109,1.669c-.608,10.9-1.454,21.79-2.6,32.674a1.474,1.474,0,0,0,.026.255l-21.285.091-2.2-101.295a1.714,1.714,0,0,0-2.989-1.054,1.443,1.443,0,0,0-1.6-1.622,347.261,347.261,0,0,1-42.817.841c-1.888-.079-2.125,2.464-.724,3.179,0,.031-.012.049-.01.079.337,4.826.61,9.649.87,14.475a1.769,1.769,0,0,0-.27,3.049c.154.105.312.2.468.31q.435,8.661.716,17.327a1.678,1.678,0,0,0,.089,2.514q.918,31.185-.245,62.405l-26.376.112a1.608,1.608,0,0,0,.075-.649,472.2,472.2,0,0,1-1.423-57.511,1.457,1.457,0,0,0-1.069-1.531,1.618,1.618,0,0,0-1.571-1.44l-20.249-.87c-.112-.069-.223-.136-.335-.2a1.5,1.5,0,0,0-1.811.109l-20.4-.878c-2.062-.089-2.133,2.926-.272,3.3a1.638,1.638,0,0,0-2.238,1.533q.289,29.193,1.794,58.344l-59.812.255c3.806-88.351,8.749-176.832,8.536-265.287,2.153-.049,4.3-.1,6.462-.239a1.705,1.705,0,0,0,1.622-2.131q-3.586-12.84-7.946-25.431a1.735,1.735,0,0,0-.41-.657,1.548,1.548,0,0,0-1.3-1.393c-.02-.006-.041-.006-.059-.012a1.918,1.918,0,0,0-.385-.038,1.588,1.588,0,0,0-1.673,1.15q-4.133,13.278-8.268,26.552a1.7,1.7,0,0,0,1.624,2.131c1.073.047,2.143.036,3.216.055a1.7,1.7,0,0,0,1.813.03c.645,0,1.29.033,1.932.03.211,88.445-4.73,176.916-8.536,265.255q-4.516.021-9.037.038a1.685,1.685,0,0,0,0,3.368q4.446-.021,8.893-.038-.189,4.4-.377,8.793c-.089,2.167,3.276,2.163,3.368,0q.182-4.4.375-8.808l351.514-1.5c.049,2.131.034,4.266-.087,6.417-1.113,1.16-.233,2.342,1.515,1.624,6.606-2.713,13-4.45,19.209-10.533h.667c.923,0,1.429.576,1.565-.128C426.12,885.455,426.169,885.163,425.1,884.618ZM153.621,828.644c-.089,2.528-.12,5.026-.164,7.532q-6.7-4.06-13.4-8.118Zm-41.205-.418a1.5,1.5,0,0,0-1.066-1.476c.073.012.13.069.209.073q10.754.462,21.508.931,10.152,6.153,20.3,12.307-.061,6.128.03,12.21a1.592,1.592,0,0,0-.266-.219q-20.644-10.952-40.7-22.933C112.432,828.821,112.42,828.525,112.415,828.227Zm.1,4.832q19.2,11.411,38.922,21.9a1.607,1.607,0,0,0,2.017-.367c.118,5.651.308,11.3.635,16.97q-20.173-11.548-39.677-24.188a1.416,1.416,0,0,0-1.61-.026C112.669,842.589,112.59,837.825,112.513,833.058Zm1.7,53.581c-.132-2.573-.2-5.146-.316-7.717l11.788,7.666Zm13.726-.061a1.713,1.713,0,0,0-.227-2.682l-13.986-9.1c-.138-3.2-.229-6.407-.349-9.608a241.611,241.611,0,0,0,36.076,21.3Zm26.78-2.325c.107,0-.112-.1-.839-.432a238.983,238.983,0,0,1-40.609-23.339c-.016-.012-.03.266-.045.255-.124-3.491-.221-6.916-.324-10.4q20,12.98,40.709,24.817c.26.148.513-.213.756-.2.211,3.23.412,5.241.691,9.3Zm74.943-17.2a315.919,315.919,0,0,1-41.045-26.816q-.079-7.068-.266-14.136,19.507,12.193,39.01,24.389a1.474,1.474,0,0,0,1.936-.237Zm-3.015-81.527a1.674,1.674,0,0,0,1.227-.659q.079,3.68.16,7.356-4.881-3.254-10-6.117C220.9,785.945,223.769,785.758,226.642,785.525Zm-13.58.813a1.428,1.428,0,0,0,.809,1.265,150.074,150.074,0,0,1,14.245,8.692q.134,6.028.264,12.054-16.07-11.019-32.351-21.719Q204.55,786.7,213.062,786.338Zm-26.593.1c1.283.045,2.565.049,3.848.079a1.619,1.619,0,0,0,.622.775q18.634,12.211,37,24.821a1.584,1.584,0,0,0,.527.223q.179,8.327.361,16.658Q207.9,815.929,187.4,802.2C187.132,796.944,186.836,791.689,186.469,786.435Zm42.3,46.5c.051.03.1.03.148.055q.161,7.381.322,14.76a1.616,1.616,0,0,0-.182-.17l-40.838-25.535c-.158-5.229-.373-10.458-.614-15.687Q207.982,819.96,228.767,832.937Zm-40.68,53.387c.1-2.6.164-5.2.239-7.794q6.861,3.866,13.726,7.733Zm19.738-.085a1.522,1.522,0,0,0-.787-1.032l-18.343-10.332a1.386,1.386,0,0,0-.255-.083c.1-3.818.1-7.636.152-11.451q19.814,12.354,40.678,22.808Zm-19.152-26.8-.03-.01c.043-5.012.024-10.022-.01-15.03a320.639,320.639,0,0,0,39.452,25.628,1.546,1.546,0,0,0,1.638-.047q.137,6.378.276,12.757Q208.782,872.063,188.673,859.442Zm114.541,18.1Q281.827,864.8,260.729,851.59c.282-5.257.485-10.515.645-15.774a397.661,397.661,0,0,0,41.767,27.021C303.159,867.739,303.232,872.641,303.214,877.546Zm-.093-18.609A398.155,398.155,0,0,1,261.7,831.925a1.479,1.479,0,0,0-.237-.111c.132-5.488.176-10.977.176-16.468q19.644,12.591,39.918,24.142a1.57,1.57,0,0,0,1.312.15C302.968,846.069,303.084,852.5,303.12,858.937Zm-.292-22.609q-20.942-11.9-41.187-24.955c-.028-4.986-.14-9.971-.28-14.957Q281.318,810.063,302.5,821.7C302.617,826.578,302.749,831.452,302.828,836.328Zm-.414-18.54q-20.945-11.612-40.682-25.172a1.592,1.592,0,0,0-.493-.207c-.2-5.884-.5-11.766-.86-17.646q19.75,12.846,40.346,24.281a1.571,1.571,0,0,0,1.131.162Q302.176,808.5,302.415,817.789ZM301,778.755c.251,5.663.527,11.326.73,16.991Q280.611,784,260.4,770.779a1.549,1.549,0,0,0-.27-.108q-.493-7.369-1.148-14.732,20.614,11.867,41.763,22.745A1.8,1.8,0,0,0,301,778.755Zm-3.066-41.041a1.785,1.785,0,0,0,.085.3c.239.464.481.928.72,1.393a1.372,1.372,0,0,0,.142.177c.308,4.611.574,9.221.835,13.832a229.8,229.8,0,0,0-25.94-14.345Zm-40.259,5.03a1.785,1.785,0,0,0-1.723-1.583c.174-.4.349-.787.523-1.182a1.432,1.432,0,0,0,.32.047l11.628-.653a1.316,1.316,0,0,0,.841,1.259,229.99,229.99,0,0,1,30.7,16.916q.471,8.689.872,17.378-21.417-11.019-42.26-23.079C258.288,748.813,258.012,745.777,257.675,742.744Zm.314,143.279a1.754,1.754,0,0,0,.075-.241c.412-3.9.732-7.8,1.075-11.7q9.921,6.423,20.407,11.849ZM362.364,714.448a1.318,1.318,0,0,0,1.383,1.2c.138,2.484.229,4.971.355,7.457q-10.419-6.825-21.346-12.777c.691.028,1.381.075,2.072.1C350.118,710.616,361.391,708.211,362.364,714.448ZM325.22,709.29q4.927.377,9.856.673a1.419,1.419,0,0,0,.272.221,307.582,307.582,0,0,1,27.935,16.395,1.47,1.47,0,0,0,1,.241c.333,6.77.683,13.542.963,20.314q-19.47-10.608-38.941-21.214C325.964,720.375,325.622,714.831,325.22,709.29Zm1.34,20.6q19.416,10.581,38.833,21.157c.227,5.683.466,11.368.657,17.055a382.267,382.267,0,0,0-38.385-17.489Q327.157,740.253,326.56,729.892Zm1.273,24.4a375.853,375.853,0,0,1,37.517,17.232,1.627,1.627,0,0,0,.827.189q.347,10.7.614,21.4l-37.671-19.489a1.633,1.633,0,0,0-.414-.118C328.468,767.095,328.134,760.692,327.834,754.287Zm1.014,22.978,38.022,19.669c.158,6.865.31,13.73.42,20.6q-19.035-9.55-37.809-19.606Q329.221,787.592,328.847,777.265Zm.712,24.5q18.759,10.033,37.779,19.557c.1,6.5.209,13,.258,19.5-.6-.255-1.174-.5-1.671-.768-4.416-2.378-8.69-5.008-13-7.559-7.382-4.367-14.837-8.445-22.96-11.232C329.871,814.766,329.711,808.268,329.559,801.769Zm38.121,78.045c-11.263-6.885-25-12.039-37.531-15.744q.079-9.379.067-18.757a303.73,303.73,0,0,0,37.5,21.585C367.711,871.2,367.709,875.508,367.681,879.815Zm-36.6-37.955a1.475,1.475,0,0,0-.878-.262c-.018-5.578-.13-11.153-.2-16.731a119.85,119.85,0,0,1,20.03,9.831c3.169,1.859,6.3,3.781,9.483,5.614,1.417.817,5.734,2.382,7.889,3.854a1.534,1.534,0,0,0,.215.529c.039,6.15.12,12.295.116,18.444A303.9,303.9,0,0,1,331.076,841.86Z" transform="translate(-37 -589.519)" fill="#0d64ae"/><path d="M298.541,590.906a1.284,1.284,0,0,0-.588-.079,39.848,39.848,0,0,0-18.621,6.591,1.705,1.705,0,0,0-.339,2.644q1.63,1.657,3.264,3.315-110.4,91.774-220.793,183.552c-1.669,1.385.726,3.755,2.38,2.38L284.62,605.774q2.065,2.1,4.134,4.2a1.708,1.708,0,0,0,2.644-.341,124.378,124.378,0,0,0,9.584-16.443A1.751,1.751,0,0,0,298.541,590.906Z" transform="translate(-12.444 -590.633)" fill="#0d64ae"/></g><g transform="translate(1029.629 1797.341)"><path d="M627.582,628.027q-34.871-1.566-69.729-.189.526-13.771,2.159-27.546c.112-.922-.862-1.659-1.683-1.683q-8.19-.243-16.38-.489L570.5,533.814c.872-1.963-2.028-3.676-2.908-1.7l-29.263,65.9-38.951-1.162a1.43,1.43,0,0,0,.041-.172q1-34.719.58-69.451c-.026-2.163-3.394-2.169-3.368,0q.423,34.734-.578,69.451c0,.028.012.047.012.075q-20.839-.623-41.674-1.243-18.1-32.022-37.248-63.429c-1.125-1.847-4.039-.158-2.907,1.7q18.6,30.513,36.2,61.612-11.961-.359-23.923-.714a1.707,1.707,0,0,0-1.683,1.683q-.28,15.833.15,31.633c-6.594-.921-13.13-.091-19.811.03q-6.153.109-12.307-.148c-4.682-.195-14.744.251-19.476-1.819l-.109-.237a1.71,1.71,0,0,0-2.3-.6c-.146.077-.292.152-.436.229a1.7,1.7,0,0,0,0,2.905c5.193,3.591,16.326,2.636,22.325,2.893,10.543.45,21.786-1.624,32.2.158q.5,16.329,1.707,32.641a1.631,1.631,0,0,0,.791,1.3,1.5,1.5,0,0,0,1.6,1.5l28.424-.973q-15.723,29.269-30.646,58.956c-.969,1.93,1.934,3.637,2.905,1.7q15.371-30.623,31.617-60.787,15.124-.517,30.249-1.036.21,33.366.424,66.73a1.778,1.778,0,0,0-.59,2.147q.42.97.839,1.942c.689,1.592,3.147.706,3.137-.852q-.222-35.042-.444-70.081,21.605-.742,43.211-1.48a1.571,1.571,0,0,0,.142.4,538.051,538.051,0,0,1,32.832,63.165c.87,1.979,3.771.268,2.907-1.7a537.952,537.952,0,0,0-32.144-61.99l12.686-.434a1.6,1.6,0,0,0,1.176-.535,1.57,1.57,0,0,0,2.275-1.482q-.858-14.72-.44-29.332,32.943-1.293,65.858.049a1.621,1.621,0,0,0,1.742.671l2.7-.594C629.946,630.91,629.417,628.108,627.582,628.027Zm-72.861,32.2c-31.1,0-62.211,1.21-93.319,2.522a1.547,1.547,0,0,0-1.94-.026q-14.677.614-29.357,1.091c-.758-10.2-1.365-20.579-1.7-30.8-.272-8.236-2.64-20.752-.32-28.742,2.709-9.335,17.392-5.612,25.893-5.359q16.478.493,32.953.959c16.159.482,34.168-.906,50.759.578.357,1.35,2.291,2.1,2.985.541l.112-.251c2.216.251,4.41.541,6.557.923,8.3,1.472,7.851,1.042,8.092,9.547.15,5.306-.874,11.618-1.087,16.94-.424,10.533-.195,19.912.389,32.077Z" transform="translate(-317.362 -488.197)" fill="#0d64ae"/><path d="M419.182,569.068c-3.962-3.09-10.3-3.611-11.606,1.926-1.411,5.981-.156,13.815.286,19.845.424,5.815,1.192,11.585,2.153,17.333.355,2.133,3.6,1.229,3.246-.894A178.33,178.33,0,0,1,411.013,587C417.343,588.093,429.6,577.2,419.182,569.068Zm-4.671,1.294q10.976,11.253-2.859,12.682l-.065-.146a1.5,1.5,0,0,0-.843-.718,29.664,29.664,0,0,1,.043-5.515Q409.858,572.28,414.51,570.362Z" transform="translate(-279.138 -445.893)" fill="#0d64ae"/><path d="M431.5,606.669a79.712,79.712,0,0,1-10.563.921q.438-19.425.876-38.849c.049-2.165-3.319-2.165-3.368,0q-.456,20.3-.916,40.605a1.706,1.706,0,0,0,1.685,1.683,86.95,86.95,0,0,0,13.181-1.113C434.525,609.574,433.619,606.33,431.5,606.669Z" transform="translate(-268.247 -445.542)" fill="#0d64ae"/><path d="M448.853,609.245q-5.982-20.6-11.964-41.214c-.434-1.5-2.934-1.705-3.246,0a331.082,331.082,0,0,0-4.943,40.986c-.126,2.163,3.242,2.157,3.368,0,.142-2.484.326-4.961.527-7.437a44.775,44.775,0,0,1,10.574.738c.061.01.109-.008.168,0q1.134,3.914,2.271,7.824C446.209,612.217,449.46,611.335,448.853,609.245ZM432.9,598.209q1.028-11.147,2.8-22.2Q439,587.4,442.31,598.785A48.183,48.183,0,0,0,432.9,598.209Z" transform="translate(-256.767 -445.837)" fill="#0d64ae"/><path d="M461.668,570.592,458,600.075a280,280,0,0,1-14.351-30.993c-.631-1.624-3.461-1.6-3.307.448a347.741,347.741,0,0,1,.77,37.655c-.073,2.167,3.295,2.165,3.368,0q.465-13.865-.176-27.694a285.63,285.63,0,0,0,13.252,26.857c.9,1.6,2.946.681,3.137-.85l4.343-34.906C465.3,568.447,461.933,568.467,461.668,570.592Z" transform="translate(-244.807 -444.714)" fill="#0d64ae"/><path d="M424.945,510.636q-11.925-.015-23.848-.028c-5.86-.008-13.509-1.375-19.1.41a1.671,1.671,0,0,0-1.176,1.178c-1.058,6.468.732,14.363,1.206,20.881.15,2.084-.176,5.416,1.537,6.825a1.721,1.721,0,0,0,1.612,1.839q18.938,1.265,37.878,2.526a1.711,1.711,0,0,0,1.685-1.683q.946-15.133,1.892-30.265A1.7,1.7,0,0,0,424.945,510.636Zm-2.735,18.5c-.144,2.3.2,6.133-.525,8.406-1.139,3.564-1.646,2.6-4.945,2.94-9.317.967-20.068-1.119-29.61-1.938a1.286,1.286,0,0,0-1.216-1.233c-.773-.105-1.219-13.8-1.285-14.736-.564-7.733,1.111-8.617,8.52-8.609l14.308.018c2.95,0,13.041-1.267,14.953.86C424.576,517.254,422.421,525.741,422.21,529.133Z" transform="translate(-306.302 -504.128)" fill="#0d64ae"/><path d="M465.172,507.158q-18.6,1.435-37.248,1.734a1.7,1.7,0,0,0-1.622,1.235,171.086,171.086,0,0,0-2.4,26.753,1.655,1.655,0,0,0-.2,2.96,6.627,6.627,0,0,0,3.041.987,1.781,1.781,0,0,0,1.825-.918q17.424-.687,34.845-1.379a1.726,1.726,0,0,0,1.685-1.683q.882-14,1.766-28.006A1.692,1.692,0,0,0,465.172,507.158ZM435.694,512.1c9.239-.249,18.465-.768,27.682-1.456q-.776,12.293-1.549,24.584l-33.9,1.34a1.99,1.99,0,0,0-.647-.921c.055-3.765.18-7.522.5-11.279C428.419,517,427.493,512.32,435.694,512.1Z" transform="translate(-262.762 -507.154)" fill="#0d64ae"/><path d="M509.815,509.7a1.713,1.713,0,0,0-1.683-1.683c-8.692-.016-17.37.286-26.029,1.078-4.175.383-14.665-.109-17.842,2.518-1.981,1.636-1.622,3.6-1.738,6.249-.257,5.9-2.378,15.353-.324,20.884a1.708,1.708,0,0,0,2.421,1.022,1.574,1.574,0,0,0,1.616,1.626q19.939-.036,39.873-.071a1.713,1.713,0,0,0,1.624-2.131C506.23,529.258,510.4,519.659,509.815,509.7ZM505.4,522.782c-.89,5.233-1.624,10.01-1.168,15.176l-38,.067a1.751,1.751,0,0,0-.369.077,1.147,1.147,0,0,0-.063-.448l-.118-.292a1.7,1.7,0,0,0-.552-.714c-.7-3.6.4-8.942.519-12.267.075-2.08-.74-8.183.732-10.008,1.732-2.143,12.459-1.618,15.717-1.914q5.681-.514,11.374-.783c2.232-.105,9.667-1.549,11.4-.3C508.341,513.879,506.046,519,505.4,522.782Z" transform="translate(-223.254 -506.27)" fill="#0d64ae"/><path d="M386.919,566.871q-20.252-.505-40.459.722a1.736,1.736,0,0,0-1.685,1.683,209.075,209.075,0,0,0-.718,27.278,1.516,1.516,0,0,0,.049.2,1.63,1.63,0,0,0,1.47,2.366,307.574,307.574,0,0,1,40.486,1.873,1.7,1.7,0,0,0,1.683-1.683q.429-15.38.858-30.758A1.706,1.706,0,0,0,386.919,566.871Zm-39.512,28.878a209.019,209.019,0,0,1,.614-24.87q18.576-1.064,37.169-.667-.38,13.628-.76,27.258A307.249,307.249,0,0,0,347.407,595.749Z" transform="translate(-343.899 -445.946)" fill="#0d64ae"/><path d="M545.456,569.156a1.716,1.716,0,0,0-2.131-1.622,203.6,203.6,0,0,1-40.275,1.608,1.513,1.513,0,0,0-1.565,1.928c0,.028-.016.047-.016.073l-.921,32.223a1.7,1.7,0,0,0,1.683,1.683l23.736-.489c6-.124,13.641,1.046,19.33-.933a1.683,1.683,0,0,0,1.174-1.176C548.27,592.148,545.87,579.612,545.456,569.156ZM543.1,594.587c-1.028,6.441-3.031,6.316-9.219,6.443l-11.076.227q-5.538.116-11.076.229c-5.8.12-6.847,1.188-7.628-4.566-1.04-7.666.316-16.484.671-24.357a207.734,207.734,0,0,0,37.432-1.549C542.694,578.574,544.25,587.359,543.1,594.587Z" transform="translate(-182.938 -445.139)" fill="#0d64ae"/><path d="M428.24,631.99c-.446-1.908-.379-3.538-2.433-4.515-4.126-1.961-13.477,1.032-17.8,1.431-7.261.669-14.531,1.188-21.808,1.614a1.6,1.6,0,0,0-1.348.841,1.637,1.637,0,0,0-1.5,1.579c-.219,4.475-2.019,24.085,3.526,26.82,4.363,2.153,13.544-.515,18.13-.844q11.311-.812,22.619-1.62a1.71,1.71,0,0,0,1.683-1.685C428.972,648.175,429.941,639.263,428.24,631.99Zm-2.453,20.249c-1.811,3.311-7.652,2.37-11.089,2.618l-14.539,1.04c-7.583.543-12.271.829-13.179-8.033a96.491,96.491,0,0,1-.3-14.01c9.2-.543,18.38-1.245,27.544-2.186,1.9-.195,4.323-.882,6.214-.669l3.1-.359a12.967,12.967,0,0,1,1.559,6.413C425.479,639.995,427.113,649.814,425.787,652.239Z" transform="translate(-303.827 -384.201)" fill="#0d64ae"/><path d="M460.355,632.35a1.708,1.708,0,0,0-1.683-1.683l-34.277,1.748a1.69,1.69,0,0,0-1.614,1.808,1.669,1.669,0,0,0-2.914,1.085,121.068,121.068,0,0,1-1.76,24.4c-.17.977.438,2.236,1.624,2.131q10.52-.937,21.042-1.869L452.8,658.9c1.918-.172,5.29.239,7.023-.8,2.03-1.217,1.857-1.969,1.934-4.426C461.971,646.67,460.813,639.347,460.355,632.35Zm-3.307,21.409c-1.985,2.247-4.258,1.772-7.259,2.04l-28.089,2.5a125.711,125.711,0,0,0,1.535-22.935,1.469,1.469,0,0,0,1.16.424q16.356-.836,32.708-1.669.411,6.228.817,12.453C458.1,649.247,458.952,651.6,457.048,653.758Z" transform="translate(-267.676 -380.244)" fill="#0d64ae"/><path d="M507.135,630.715a1.708,1.708,0,0,0-1.685-1.683q-19.218.4-38.436.8c-2.163.045-2.172,3.412,0,3.366q13.978-.292,27.953-.586c3.4-.071,6.683-1.17,8.895,1.833,1.656,2.249.41,11.993.541,14.933q.17,3.732.369,7.461-1.554,3.458-5.383,2.155c-3.376.722-7.469.217-10.9.375-9,.418-17.972,1.15-26.934,2.062a168.666,168.666,0,0,0,3.313-29.35c.051-2.167-3.315-2.167-3.368,0a164.253,164.253,0,0,1-3.635,30.778c-.207.963.468,2.252,1.624,2.131q23.533-2.479,47.174-2.737a1.7,1.7,0,0,0,1.683-1.683Q507.515,645.654,507.135,630.715Z" transform="translate(-226.835 -381.922)" fill="#0d64ae"/></g><g transform="translate(1838.875 36.003)"><path d="M929.909,130.6c-10.338-.872-20.756-1.156-31.2-1.162q-.906-29.056-1.117-58.135c3.714-.152,7.429-.266,11.141-.424,2.159-.091,2.171-3.459,0-3.368-3.721.158-7.441-.622-11.162-.47-.032-4.8-.083-9.679-.089-15.292,0-2.806-3.368-2.806-3.366,0,0,5.612.057,10.58.089,15.419-16.212.653-32.424,1.18-48.64,1.732-.006-8.5-.012-17.5-.018-25.608h-3.368c.006,8.11.014,17.627.02,26.159-18.25.614-36.5,1.468-54.751,1.963-.043-8.157-.116-16.172-.134-24.326-.006-2.167-3.372-2.1-3.368.069.018,8.189.093,16.413.136,24.6q-24.716.66-49.435,1.2c.073-5.545.138-11.08.241-16.626.041-2.167-3.327-2.163-3.368,0-.1,5.564-.168,11.131-.241,16.695q-26.17.529-52.343.908c-.316-6.328-.631-12.654-.981-18.98-.118-2.155-3.485-2.169-3.366,0q.526,9.513.981,19.028-26.845.359-53.693.564-.058-21.027-.114-42.053a1.685,1.685,0,0,0-3.368,0q.058,21.04.114,42.079c-.981.008-1.963.02-2.946.026a1.684,1.684,0,0,0,0,3.366c.985-.006,1.971-.018,2.956-.024l.15,55.147q-4,.046-7.995.1c-2.165.024-2.172,3.392,0,3.366q4-.046,8-.1.024,8.248.045,16.494a6.666,6.666,0,0,0-3.852,3.946,7.362,7.362,0,0,0,3.889,9.031q.033,12.5.067,25.012c-2.027-.036-4.057-.051-6.085-.089-2.167-.041-2.167,3.327,0,3.368,2.031.036,4.063.051,6.095.089q.07,25.875.14,51.753c-5.122-.132-10.243-.245-15.363-.387-2.167-.061-2.167,3.307,0,3.366,5.124.144,10.247.257,15.373.389q.015,5.867.032,11.731a1.684,1.684,0,0,0,3.366,0q-.015-5.824-.031-11.646,28.8.73,57.616,1.225c0,1.6.012,3.208.01,4.811a1.685,1.685,0,0,0,3.368,0c0-1.584-.012-3.167-.012-4.75q25.54.447,51.079.7c.055,1.115.1,2.23.152,3.347.108,2.155,3.473,2.167,3.366,0-.053-1.1-.1-2.2-.148-3.3q24.625.255,49.253.351c.067,2.386.113,4.773.182,7.157.061,2.161,3.428,2.169,3.366,0-.069-2.384-.115-4.769-.18-7.151,17.309.063,34.618-.746,51.929-.8,0,2.626,0,3.051.006,7.106,0,2.028,3.368,2.028,3.366,0,0-4.055,0-4.481-.006-7.109,18.813-.063,37.627.278,56.438.028.215,2.67.4,5.624.625,8.295.178,2.143,3.546,2.3,3.368.14-.223-2.684-.414-5.3-.629-7.986,5.527-.073,11.056-.1,16.583-.18,2.163-.03,2.17-3.467,0-3.437-5.618.077-11.236.122-16.855.18q-2.08-26.535-3.6-53.093c3.078-.041,6.153-.047,9.229-.089,2.165-.028,2.172-3.4,0-3.372-3.141.045-6.281.053-9.422.091q-1.645-29.421-2.621-58.875c10.4.008,20.784.294,31.088,1.164C932.068,134.151,932.056,130.782,929.909,130.6ZM621.892,77.92q26.934-.186,53.859-.566,1.344,27.508,2.261,55.031l-55.97.669Q621.969,105.488,621.892,77.92Zm.16,58.5,56.063-.669q.5,15.453.851,30.91l-12.725,20.077a6.479,6.479,0,0,0-4.969.122,1.281,1.281,0,0,0-1.452.16c-.055.043-.1.1-.15.14a323.159,323.159,0,0,1-30.038-25.085,10.763,10.763,0,0,0-2.348-7.064,7.463,7.463,0,0,0-5.19-2.543Q622.073,144.445,622.052,136.42Zm57.04,36.329c.138,6.344.282,12.688.387,19.032-3.183-.036-6.364-.1-9.546-.132a6.8,6.8,0,0,0-1.071-2.764Q673.979,180.818,679.092,172.749Zm-56.957-5.525a6.872,6.872,0,0,0,2.648.235,5.059,5.059,0,0,0,3.678-1.877,330.088,330.088,0,0,0,29.174,24.233,7.334,7.334,0,0,0-.545,1.656c-11.63-.148-23.26-.274-34.89-.481Q622.169,179.109,622.135,167.224Zm.215,78.923q-.07-25.894-.14-51.789c11.715.207,23.432.335,35.149.485a6.427,6.427,0,0,0,.908,1.784c2.253,3,6.9,3.185,9.675.795a5.883,5.883,0,0,0,1.652-2.411c3.313.039,6.626.1,9.939.136q.408,26.109.434,52.225Q651.158,246.858,622.35,246.148Zm56.765-168.84q26.064-.362,52.121-.9-.265,22.356-.164,44.713-4.909-6.925-10.1-13.572a13.684,13.684,0,0,0,1.008-2.322c1.144-3.682.172-8.6-4.3-9.266a6.223,6.223,0,0,0-4.874,1.523,1.3,1.3,0,0,0-1.363.852c-.233.531-.462,1.091-.675,1.667a7.254,7.254,0,0,0-.825,2.9c-.675,3.254-.3,6.541,3.157,8.374a5.712,5.712,0,0,0,.76.333l-13,20.514-19.482.233Q680.461,104.82,679.115,77.308Zm51.98,54.445-26.218.314,13.461-21.24a7.1,7.1,0,0,0,.574-.539c4.292,5.677,8.309,11.577,12.175,17.587C731.094,129.168,731.086,130.461,731.094,131.753Zm-49.614,3.96,17.232-.207-16.5,26.033Q681.891,148.626,681.481,135.713Zm.872,31.891,20.375-32.144,28.406-.341q.237,28.561,1.046,57.113-24.668-.149-49.332-.406Q682.647,179.713,682.353,167.6Zm.983,79.832q-.024-26.125-.434-52.241,24.686.277,49.372.4.763,26.274,2,52.531Q708.8,247.849,683.336,247.435Zm102.351-51.671c.1,4.645.221,9.292.334,13.935q-4.255-6.922-8.459-13.957C780.272,195.746,782.979,195.764,785.687,195.764Zm-.063-3.368c-3.358,0-6.713-.022-10.071-.026-11.393-19.18-22.716-38.7-34.991-57.363l30.218-.361q6.94-.082,13.88-.166Q785.038,163.442,785.624,192.4ZM734.6,76.345q24.753-.511,49.5-1.184.158,27.98.513,55.954l-13.838.164-32.4.387c-1.292-1.932-2.611-3.836-3.929-5.746Q734.326,101.133,734.6,76.345ZM734.5,135.08l1.135-.014c5.067,8.163,9.975,16.429,15.028,24.513l20.486,32.779c-11.867-.02-23.736-.032-35.6-.1Q734.747,163.673,734.5,135.08Zm3.141,113.1q-1.238-26.268-2-52.549,18.807.106,37.617.105l11.468,18.349a1.662,1.662,0,0,0-1.486.675,16.719,16.719,0,0,0-1.008,1.547,6.6,6.6,0,0,0-1.075,2.3c-.006.028,0,.059-.006.087-1.091,3.082-.959,6.4,1.983,8.733a7.107,7.107,0,0,0,3.352,1.435c.164,6.555.3,13.112.474,19.667Q762.3,248.425,737.639,248.175ZM787.471,75.063q27.372-.742,54.735-1.679.018,22.989.035,45.978-4.556,5.5-8.909,11.17l-45.345.541Q787.631,103.07,787.471,75.063Zm34.975,82.8a7.491,7.491,0,0,0,4.1-9.045,6.9,6.9,0,0,0-1.02-1.957q4.6-6.594,9.448-12.984l7.275-.087q.021,29.215.045,58.429-20.1.116-40.2.13,7.865-17.326,16.656-34.229A5.652,5.652,0,0,0,822.446,157.865Zm19.8-27.438-4.631.055q2.287-2.935,4.627-5.823Q842.248,127.542,842.249,130.427Zm-54.222,4.012q21.356-.252,42.71-.509-4.005,5.331-7.826,10.819a4.814,4.814,0,0,0-1.959-.381,1.46,1.46,0,0,0-2.18-.527c-3.2,2.178-5.708,5.827-4.485,9.84a6.813,6.813,0,0,0,1.592,2.688q-9.248,17.758-17.447,35.995c-3.149,0-6.3.028-9.442.028Q788.4,163.418,788.027,134.439Zm1.026,61.32c2.626,0,5.253-.022,7.879-.024q-3.844,8.643-7.459,17.392C789.337,207.339,789.175,201.548,789.053,195.76Zm1.273,52.772c-.182-6.636-.316-13.276-.481-19.914a7.707,7.707,0,0,0,4.083-2.948,7.989,7.989,0,0,0-1.6-10.7q3.993-9.693,8.268-19.245,20.851-.033,41.7-.134.021,26.459.038,52.92C825,248.561,807.662,248.6,790.326,248.532Zm55.282-127.981q11.526-13.817,24.349-26.544c2.948,2.159,7.6,1.612,9.57-1.677,1.95-3.252.787-8.426-3.234-9.4a5.538,5.538,0,0,0-3.208.247,1.371,1.371,0,0,0-1.33-.124,6.567,6.567,0,0,0-3.842,8.234q-11.685,11.59-22.309,24.069-.015-21.04-.032-42.079c16.222-.554,32.44-1.2,48.659-1.849q.234,29.023,1.117,58.03c-15.788.077-31.611.708-47.28.894l-2.453.03Q845.612,125.469,845.609,120.551Zm.01,13.2,2.449-.03c15.707-.187,31.566-.821,47.387-.9q.958,29.458,2.622,58.885-26.207.313-52.416.5Q845.64,162.987,845.619,133.754Zm56.254,114.431q-28.086.274-56.168.367-.018-26.465-.038-52.951,26.3-.158,52.606-.515Q899.792,221.649,901.872,248.185Z" transform="translate(-601.994 -30.874)" fill="#0d64ae"/></g><g transform="translate(1992.152 579.35)"><path d="M746.277,253.093c5.188-3.3,7.958-10.111,6.788-16.557a16.474,16.474,0,0,0-19.831-12.986c-8.51,1.859-13.955,10.863-12.066,19.33A15.454,15.454,0,0,0,731.6,254.1c-19.509,5.111-31.449,24.458-30.38,44.879a1.626,1.626,0,0,0,1.089,1.488,1.481,1.481,0,0,0,1.133.42q36.827-1.344,73.666-2.305a1.593,1.593,0,0,0,1.579-1.452,1.92,1.92,0,0,0,.426-.975C781.927,274.676,767.173,255.526,746.277,253.093Zm-21.518-9.805c-1.987-6.229,1.283-13.674,7.514-15.918,6.63-2.388,14.406.675,16.82,7.49,2.37,6.695-.7,15.213-7.773,16.668a1.6,1.6,0,0,0-1.251-.2C733.911,252.746,726.772,249.6,724.759,243.288Zm50.023,50.455.545,1.523q-35.382.934-70.75,2.218c-.389-20.521,13.193-40.394,35.283-41.295,21.05-.858,36.5,15.644,36.193,35.561A1.46,1.46,0,0,0,774.782,293.743Z" transform="translate(-653.381 -162.616)" fill="#0d64ae"/><path d="M719.7,194.922c-.081-2.159-3.449-2.169-3.366,0q.916,24.221,2.113,48.431c.105,2.157,3.473,2.169,3.366,0Q720.62,219.145,719.7,194.922Z" transform="translate(-637.783 -193.298)" fill="#0d64ae"/><path d="M720.212,255.55q-20.054-11.815-40.11-23.627a1.685,1.685,0,0,0-1.7,2.907q20.057,11.812,40.11,23.627A1.685,1.685,0,0,0,720.212,255.55Z" transform="translate(-677.592 -153.862)" fill="#0d64ae"/><path d="M716.424,265.706l-34.36,25.964c-1.707,1.289-.03,4.215,1.7,2.907l34.358-25.964C719.83,267.324,718.153,264.4,716.424,265.706Z" transform="translate(-673.731 -119.236)" fill="#0d64ae"/><path d="M725.511,312.351c-.061-.162-.122-.322-.182-.483a1.727,1.727,0,0,0-1.9-1.1,8.919,8.919,0,0,0,.823-6.089q-.036-1.764-.075-3.53l-.262-12.358q-.243-11.475-.487-22.95c-.047-2.163-3.412-2.169-3.368,0q.3,14.124.6,28.245c.128,6.127-1.249,14.179,1.192,19.878a1.7,1.7,0,0,0,2.3.6c.195-.105.387-.213.582-.32A1.693,1.693,0,0,0,725.511,312.351Z" transform="translate(-633.955 -120.426)" fill="#0d64ae"/><path d="M791.882,283.245q-21.876-12.345-44.163-23.933c-1.92-1-3.625,1.908-1.7,2.907q22.286,11.587,44.163,23.935C792.073,287.219,793.772,284.311,791.882,283.245Z" transform="translate(-608.151 -125.679)" fill="#0d64ae"/><path d="M772.874,225.893a410.673,410.673,0,0,0-35.948,25.78c-1.691,1.356.706,3.725,2.382,2.38A402.106,402.106,0,0,1,774.573,228.8C776.4,227.637,774.709,224.721,772.874,225.893Z" transform="translate(-617.22 -160.087)" fill="#0d64ae"/></g><g transform="translate(602.546 1887.137)"><path d="M389.376,639.956c12.792-16.269,16.082-41.019-2.052-55.1a27.627,27.627,0,0,0-30.433-2.567c-16.1-36.889-64.429-41.883-87.536-8.528a1.57,1.57,0,0,0-.26.612c-9.2-4.738-20.131-4.615-30.79,3.262-16.3,12.048-21.532,38.318-3.135,50.7a1.5,1.5,0,0,0,.324.134,86.106,86.106,0,0,0,18.892,118.29c-4.623,5.438-14.446,13.374-8.055,21.2,2.328,2.849,6.141,3.141,9.369,1.746a13.672,13.672,0,0,0,5.113-4.11c.7-.864,5.227-7.818,5.353-7.739,1.648,1.018,3.153-1.174,2.167-2.469a92.289,92.289,0,0,0,48.123,9.426,1.6,1.6,0,0,0,.2-.057,1.675,1.675,0,0,0,.9.083,114.2,114.2,0,0,0,43.432-17.692c2.9,6.786,11.06,17.927,18.785,12.119,7.913-5.951-.649-17.356-6.028-22.564A79.2,79.2,0,0,0,396.772,694c3.3-18.057-.185-36.909-8.422-53.48A1.36,1.36,0,0,0,389.376,639.956Zm.148-48.1C401.115,605.6,397.4,624.34,387,637.576a1.392,1.392,0,0,0-.083.164c-8.814-16.386-22.317-30.3-38.513-38.588-.454-.231-.91-.434-1.365-.657a1.662,1.662,0,0,0,.864-.953C354.691,579.177,377.693,577.823,389.524,591.853Zm-117.26-16.391c21.471-31,67.225-26.25,81.758,8.55.014.034.043.053.057.085a26.814,26.814,0,0,0-5.772,5.8c-10.817-29.628-51.207-33.152-70.081-8.678a37.28,37.28,0,0,0-6.443-5.294A1.787,1.787,0,0,0,272.264,575.463Zm73.851,17.98a27.762,27.762,0,0,0-1.462,3.2,1.6,1.6,0,0,0-.1.651,85.086,85.086,0,0,0-58.247-4.742,47.453,47.453,0,0,0-5.819-8.818c17.25-23.556,56.406-19.772,65.272,9.061A1.717,1.717,0,0,0,346.115,593.443ZM243.346,578.322c16.77-9.6,31.719.286,39.654,15.2a92.114,92.114,0,0,0-45.633,32.416,1.744,1.744,0,0,0-.5-.5C219.167,613.515,227.211,587.559,243.346,578.322ZM262.992,756.6c-2.644,3.139-4.158,7.579-7.9,9.661-5.744,3.193-8.477-3.019-6.372-7.626,1.772-3.877,5.685-6.6,8.353-9.842.016-.02.016-.041.032-.061A90.346,90.346,0,0,0,266.6,754.5C265.194,754.341,264.016,755.383,262.992,756.6Zm116.155-2.08c-1.608,2.938-4.641,3.1-7.183,1.59a16.067,16.067,0,0,1-3.564-3.059,22.977,22.977,0,0,1-4.6-7.9,95.41,95.41,0,0,0,7.5-6.133C374.926,742.478,381.6,750.031,379.147,754.522Zm12.666-94.529c13.276,51.682-26.563,92.364-74.789,101.528a1.6,1.6,0,0,0-.566-.073c-44.458,3.364-85.053-26.486-92.246-71.117-6.987-43.363,22.149-86.786,65.359-96.009C335.793,584.455,380.264,615.032,391.813,659.992Z" transform="translate(-219.831 -551.443)" fill="#0d64ae"/><path d="M368.835,646.75c-5.5-38.941-38.677-73.307-80.093-66.929-36.982,5.7-64.343,40.7-60.175,77.983,4.183,37.422,37.329,63.7,74.546,60.84a1.678,1.678,0,0,0,1.529-1.277C341.879,714.76,374.413,686.23,368.835,646.75Zm-67.926,67.427a1.569,1.569,0,0,0-1.543,1.217c-32.386.74-61.245-21.182-66.9-53.91-5.712-33.071,14.961-65.941,46.84-76.02,38.355-12.127,74.11,14.661,84.018,51.288,5.568,20.585,2.978,40.6-12.1,56.481C338.124,707.025,319.613,713.746,300.909,714.178Z" transform="translate(-211.287 -523.072)" fill="#0d64ae"/><path d="M291,669.883,270.866,649.4a5.7,5.7,0,0,0-.18-2.96,5.516,5.516,0,0,0-3.416-3.325l5.316-55.177c.209-2.155-3.159-2.141-3.366,0q-2.649,27.469-5.3,54.938a4.23,4.23,0,0,0-3.218,3.463c-.018.1,0,.193-.01.288a5.092,5.092,0,0,0,2.425,6.825,5.442,5.442,0,0,0,6.066-.955q8.8,8.945,17.587,17.891a1.688,1.688,0,0,0,.681,1.056l1.508,1.087C290.547,673.666,292.307,671.209,291,669.883Z" transform="translate(-178.329 -515.603)" fill="#0d64ae"/><path d="M262,583v6.083c0,2.027,6.083,2.027,6.083,0V583Z" transform="translate(-176.502 -519.018)" fill="#0d64ae"/><path d="M245.058,613.149c-3.24-.888-6.521-1.565-9.827-2.129a1.553,1.553,0,0,0-1.2-.519l-1.92-.008c-1.833-.01-2.372,3.031-.448,3.3a102.348,102.348,0,0,1,12.506,2.6A1.684,1.684,0,0,0,245.058,613.149Z" transform="translate(-208.922 -490.768)" fill="#0d64ae"/><path d="M263.357,638.786q-.432,4.553-.862,9.1c-.2,2.155,3.165,2.141,3.368,0q.432-4.553.86-9.1C266.928,636.631,263.558,636.645,263.357,638.786Z" transform="translate(-176.002 -463.351)" fill="#0d64ae"/><path d="M298.193,613H284v2.028h14.193C300.22,615.028,300.22,613,298.193,613Z" transform="translate(-153.897 -488.192)" fill="#0d64ae"/><path d="M286.788,597.158a3.971,3.971,0,0,1-2.321,2.366c-2.007.758-1.137,4.015.894,3.246a7.652,7.652,0,0,0,4.673-4.716C290.774,596.014,287.522,595.134,286.788,597.158Z" transform="translate(-154.586 -505.648)" fill="#0d64ae"/><path d="M276.686,588.613a2.336,2.336,0,0,1-1.892,2.474c-2.107.5-1.214,3.749.9,3.246a5.707,5.707,0,0,0,4.363-5.72C279.981,586.454,276.615,586.442,276.686,588.613Z" transform="translate(-164.591 -514.919)" fill="#0d64ae"/><path d="M254.769,595.31a16.561,16.561,0,0,0-5.272-5.034c-1.861-1.119-3.556,1.792-1.7,2.907a12.7,12.7,0,0,1,4.063,3.828C253.066,598.8,255.983,597.114,254.769,595.31Z" transform="translate(-191.921 -511.8)" fill="#0d64ae"/><path d="M243.885,602.653q-2.731-1.861-5.462-3.727c-1.792-1.225-3.479,1.691-1.7,2.908q2.731,1.861,5.46,3.727C243.98,606.785,245.665,603.869,243.885,602.653Z" transform="translate(-203.252 -502.956)" fill="#0d64ae"/><path d="M242.273,624.894q-1.405,1.755-2.806,3.508c-1.34,1.677,1.028,4.073,2.38,2.38q1.4-1.752,2.8-3.508C245.992,625.6,243.626,623.2,242.273,624.894Z" transform="translate(-200.064 -476.565)" fill="#0d64ae"/><path d="M251.541,634.353a7.691,7.691,0,0,0-5.136,5.612c-.468,2.111,2.776,3.013,3.246.894a4.276,4.276,0,0,1,2.784-3.258C254.473,636.9,253.6,633.645,251.541,634.353Z" transform="translate(-192.574 -466.354)" fill="#0d64ae"/><path d="M284.549,638.649q-2.476-2.074-4.957-4.15c-1.65-1.381-4.045.987-2.38,2.38l4.957,4.152C283.819,642.412,286.214,640.044,284.549,638.649Z" transform="translate(-161.451 -466.531)" fill="#0d64ae"/><path d="M291.939,629.07a8.051,8.051,0,0,0-6.322-3.725c-2.159-.166-2.149,3.2,0,3.368a4.454,4.454,0,0,1,3.414,2.058C290.207,632.579,293.125,630.894,291.939,629.07Z" transform="translate(-153.896 -475.513)" fill="#0d64ae"/></g><g transform="translate(63.217 56.72)"><path d="M236.771,130.951q.228-20.374-1.389-40.713c-1-12.611.724-36-12.769-43.079-5.894-3.09-14.509-2.4-20.9-2.7-13.765-.643-27.53-1.261-41.3-1.772-27.469-1.022-55.155-2.184-82.64-1.255-10.316.347-23.444,3.183-26.013,12.909a11.748,11.748,0,0,0-2.488,7.433,1.616,1.616,0,0,0-.515,1.129c-1.253,24.355-2.129,48.865-1.433,73.254.337,11.818,2.19,23.8,14.333,28.8,17.124,7.046,41.226,1.715,59.121,1.066q37.867-1.372,75.738-2.747c10.742-.389,33.229,4.507,38.525-8.317C237.935,147.96,236.688,138.285,236.771,130.951Zm-4.467-39.3a1.545,1.545,0,0,0-1.1-.448c-.322,0-.647,0-.969-.006q-2.6-5.906-5.2-11.812c1.36,2.2,2.664,4.444,3.854,6.81.845,1.677,3.773.5,3.078-1.3-.091-.235-.182-.47-.272-.706a1.924,1.924,0,0,0,.341-.055C232.142,86.68,232.223,89.2,232.3,91.652ZM124.2,89.385l-.422-.854c1.316.079,2.634.168,3.952.239.243.264.485.531.732.793-.353.006-.706.02-1.056.022a1.609,1.609,0,0,0-1.624,1.705q-.934.012-1.867.02A1.761,1.761,0,0,0,124.2,89.385ZM66.411,92.153c-3.408.067-6.814.116-10.223.189a1.376,1.376,0,0,0-.085-.365c.146.047.253.079.416.132a1.751,1.751,0,0,0,2.127-1.938q3.57.639,7.143,1.194C65.993,91.632,66.208,91.881,66.411,92.153Zm37-27.295q3.072.015,6.139.03a1.524,1.524,0,0,0-.491,1.358l-5.192-.854Zm8.751.312a1.915,1.915,0,0,0-.294-.27c2.954.016,5.908.024,8.86.043a2.05,2.05,0,0,0,.008.61.537.537,0,0,0-.02.077c-.961,0-1.922-.008-2.881,0a1.791,1.791,0,0,0-1.348,2.768L114.9,68.36a1.408,1.408,0,0,0-1.176-1.344l-.1-.016C113.145,66.383,112.638,65.793,112.16,65.17Zm65.7.4a1.274,1.274,0,0,0-.237-.2q7.141.061,14.282.13c-4.017.217-8.029.454-12.041.74a1.722,1.722,0,0,0-.894.326l-.328-.01C178.381,66.233,178.119,65.9,177.859,65.572Zm-95,24.559q-.5-.87-.989-1.74c1.121.322,2.244.618,3.368.916.286.375.582.74.864,1.115C85.021,90.33,83.941,90.237,82.86,90.131ZM68.537,88.377c-.929-1.786-1.835-3.589-2.808-5.343q2.591,2.841,5.178,5.683Q69.722,88.554,68.537,88.377Zm55.445-14.444c.065.154.136.3.2.458q-2.609-.426-5.213-.91a1.654,1.654,0,0,0,.036-.333l1.916.12C121.94,73.5,122.96,73.722,123.982,73.933Zm62.932,3.1-.738-.933,2.589.182c.091.274.185.545.278.819Zm-112.5-6.253c1.247.014,2.494.051,3.741.047.182.337.357.675.537,1.012l-3.885-.14c-.14-.15-.286-.3-.424-.446A1.848,1.848,0,0,0,74.419,70.781ZM186.032,85.565l3.266-.122.531.675c-1.178.034-2.356.073-3.532.1C186.211,86,186.122,85.784,186.032,85.565Zm9.321-.347q1.627-.058,3.254-.12c.178.229.355.46.533.689-1.184.051-2.368.079-3.552.126C195.509,85.683,195.432,85.452,195.353,85.218ZM75.922,89.371a1.083,1.083,0,0,0-.057-.154q-1.08-1.706-2.155-3.41c.483.166.963.335,1.446.495.9,1.081,1.782,2.19,2.668,3.291C77.189,89.519,76.556,89.446,75.922,89.371Zm45.82-7.279c.7.8,1.395,1.62,2.107,2.419l-2.032.075-1.31-2.634C120.918,82,121.33,82.049,121.742,82.092ZM175,66.454q-9.431-.322-18.866-.525-5.474-.4-10.953-.8,15.313.119,30.624.235A1.734,1.734,0,0,0,175,66.454ZM79.083,64.736q.715.122,1.429.241-6.064-.094-12.143.022a1.561,1.561,0,0,0-.874-.32Q73.289,64.7,79.083,64.736ZM51.411,79.448a1.67,1.67,0,0,0,.775-.622q.915,1.323,1.837,2.646-1.274-.791-2.628-1.551Zm5.947-3.98c1.024,1.632,2.03,3.27,3,4.925-1.545-1.466-3.171-2.869-4.844-4.235A13.935,13.935,0,0,1,57.358,75.468ZM119.14,88.574c-1.267-.243-2.528-.5-3.8-.748q-1.557-2.935-3.118-5.87a1.921,1.921,0,0,0-.016-1.1c.144.02.288.039.434.061q1.758,2.074,3.52,4.148a1.69,1.69,0,0,0,.908,3.06c.594.041,1.188.069,1.78.107C118.948,88.349,119.045,88.461,119.14,88.574Zm98.527.01c-1.281-.667-2.567-1.316-3.85-1.9l-.189-.422c.734.024,1.478,0,2.212.014Q216.753,87.431,217.668,88.584Zm4.72-2.265c.055,0,.093-.026.144-.032q1.752,2.445,3.5,4.892c-.681-.006-1.362-.006-2.046-.01q-1.128-2.427-2.255-4.856C221.954,86.309,222.169,86.324,222.388,86.319ZM54.706,56c.085-.1.144-.209.235-.3a1.588,1.588,0,0,0,.3-1.853c4.337-11.772,29.537-9.158,39.072-9.162q16.529-.006,33.057.375c20.2.438,40.4,1.235,60.586,2.137,14.72.657,34.6-2.989,40.877,14.983.034.093.055.2.085.294q-74.737-.824-149.481-1.1-2.771-.459-5.541-.914a1.737,1.737,0,0,0-1.823.876c-5.679-.022-11.356-.069-17.035-.085A14.856,14.856,0,0,1,54.706,56Zm-2.352,8.6c3.122.01,6.247-.939,9.367-.923-.168.136-.31-.472-.416-.472h-.041c-.708,0-1.223,1.48-1.478,2.064-.032.014-.061.521-.093.535-1.4-.008-2.879.314-4.45.47-.105-.164-.243-.182-.335-.357a1.7,1.7,0,0,0-2.922.109c.024-.517.041-1,.067-1.519C52.157,64.53,52.24,64.6,52.354,64.6Zm163.1,94.62L91.031,163.736c-8.313.3-18.929,1.9-26.771-1.332-15.669-6.458-13.6-23.073-13.666-36.714q-.073-14.948.3-29.884,28.552-.636,57.105-.957c3.643.043,7.293.043,10.953-.049a1.608,1.608,0,0,0,.341-.073q55.954-.593,111.911-.158a1.528,1.528,0,0,0,1.186-.491c.059,1.466.122,2.905.207,4.288q.915,14.914.823,29.867C233.345,142.516,234.415,158.536,215.452,159.223Z" transform="translate(-47.084 -41.092)" fill="#0d64ae"/><path d="M167.22,75.21l-3,.079-.024.006q-34.357.955-68.719,1.914c-2.161.059-2.171,3.427,0,3.366l71.744-2C169.384,78.517,169.392,75.154,167.22,75.21Z" transform="translate(0.971 -6.036)" fill="#0d64ae"/><path d="M141.465,83.149q-24.2-.55-48.407-.185c-2.163.032-2.171,3.4,0,3.366q24.209-.365,48.407.187C143.632,86.566,143.632,83.2,141.465,83.149Z" transform="translate(-1.515 1.783)" fill="#0d64ae"/></g><g transform="translate(48.362 1489.711)"><path d="M282.839,539.274c-1.62-9.211-2.09-24.478-14.162-25.214-.527-2.161-1.014-4.329-1.553-6.488a1.659,1.659,0,0,0-1.176-1.174,51.434,51.434,0,0,0-13.789-1.1c-3.12-12.82-6.17-25.658-9.065-38.535a1.687,1.687,0,0,0-1.622-1.237,113.943,113.943,0,0,0-89.7,63.188c-21.117-35.648-83.335-16.94-111.21-1.626a1.727,1.727,0,0,0-.6,2.3q9.534,20.681,17.739,41.858l-7.962,4.337a1.688,1.688,0,0,0-.772,1.9c1.45,3.534,2.824,7.094,4.235,10.643l-5.645,7.021a1.8,1.8,0,0,0-.264,2.04Q65.5,638.7,80.111,681.611a1.7,1.7,0,0,0,2.814.742,130.3,130.3,0,0,1,98.722-39.216c.02,0,.032-.008.053-.008a1.638,1.638,0,0,0,2.782.547,1.5,1.5,0,0,0,2.573.434l.247-.294a1.692,1.692,0,0,0,1.989-.172A136.012,136.012,0,0,1,293.7,612.4c1.186.14,1.79-1.182,1.622-2.131Q289.082,574.772,282.839,539.274Zm-12.565-4.12q3.339,14.72,6.271,29.529c.689,3.475,7.759,26.854,5.478,29.685-2.974,3.688-15.8.134-20.967.412-28.88,1.559-52.255,19.462-70.742,40.344,6.322-36.714,39.431-71.5,78.956-52.941a1.706,1.706,0,0,0,2.474-1.9q-9.991-35.641-18.755-71.6C267.2,508.73,267.709,523.855,270.274,535.155Zm-176.3,132.6c-1.855,1.456-5.049,4.87-7.1,6-4.675,2.585-2.508,3.8-6.121-.641-5.091-6.259-7.181-20.131-10.052-27.688q-5.708-15.018-11.887-29.855c-3.333-8.007-9.144-15.916-4.152-23.767q13.744,34.908,25.095,70.68a1.708,1.708,0,0,0,2.814.744,105.886,105.886,0,0,1,85.941-23.315A132.463,132.463,0,0,0,93.971,667.752Zm5.537-20.2c-2.086,1.109-14.916,10.894-16.1,10.592-5.237-1.33-8.607-21.664-10.415-26.867q-5.24-15.076-10.951-29.981c-3.386-8.838-11.636-20.273-3.076-26.737q11.1,28.98,19.817,58.849a1.7,1.7,0,0,0,2.474,1.008,84.1,84.1,0,0,1,97.349,4.175A109.363,109.363,0,0,0,99.508,647.556Zm27.836-30.234a85.98,85.98,0,0,0-33.432,6.415c-2.987,1.245-9.568,6.081-12.187,4.637C77.966,626.3,74.762,608.7,73.4,604.6q-7.524-22.7-16.561-44.855-3.595-8.811-7.413-17.53c-1.626-3.71-4.963-8.141-3.579-12.159,1.673-4.846,9.3-6.66,13.927-8.465,25.285-9.856,74.554-19.409,90.29,10.928a1.754,1.754,0,0,0,.41,1.2Q165.9,584.029,179.453,634.87A86.894,86.894,0,0,0,127.344,617.322Zm57.89,23.74a1.387,1.387,0,0,0-.349-1.778c-.32-.284-.655-.549-.979-.827Q169.785,585.2,153.631,532.523c13.538-29.176,43.129-57.744,76.381-61.864,13.333-1.652,12.8,10.182,15.192,20.338q3.352,14.248,6.9,28.45,7.323,29.3,15.48,58.376c-42.087-16.914-76.967,21.964-81.3,61.985C185.933,640.227,185.579,640.642,185.234,641.062ZM290.15,607.1c-2.907,3.206-18.5.762-23.649,1.139a138.146,138.146,0,0,0-71.288,26.516c23.063-24.792,53.664-43.736,88.895-33.8a1.7,1.7,0,0,0,2.07-2.07Q279.3,557.938,269.526,517.6c9.641,1.926,10.375,24.328,11.506,30.761q2.643,15.018,5.282,30.036C287.241,583.659,293.554,603.348,290.15,607.1Z" transform="translate(-39.757 -465.515)" fill="#0d64ae"/><path d="M168.629,507.157c-28.8.6-52.215,19.876-57.92,48.164-.426,2.115,2.818,3.021,3.248.894,5.4-26.794,27.27-45.125,54.672-45.69C170.794,510.48,170.8,507.113,168.629,507.157Z" transform="translate(33.108 -422.727)" fill="#0d64ae"/><path d="M156.511,497.462a62.189,62.189,0,0,0-48,35.559c-.906,1.953,2,3.664,2.907,1.7a59.182,59.182,0,0,1,45.986-34.012C159.542,500.41,158.632,497.166,156.511,497.462Z" transform="translate(30.714 -432.708)" fill="#0d64ae"/><path d="M154.341,486.915a56.6,56.6,0,0,0-48.752,35.212c-.827,2,2.429,2.873,3.246.894a53.094,53.094,0,0,1,45.506-32.738C156.491,490.133,156.507,486.763,154.341,486.915Z" transform="translate(27.751 -443.53)" fill="#0d64ae"/><path d="M135.207,537.063c-18.225-15.413-56.827-8.325-72.082,8.5-1.452,1.6.923,3.99,2.38,2.38,13.481-14.868,50.69-22.564,67.322-8.5C134.469,540.835,136.864,538.466,135.207,537.063Z" transform="translate(-16.212 -400.757)" fill="#0d64ae"/><path d="M134.131,529.308a71.2,71.2,0,0,0-70.108.882c-1.882,1.073-.187,3.984,1.7,2.905a67.685,67.685,0,0,1,66.71-.882C134.34,533.24,136.043,530.334,134.131,529.308Z" transform="translate(-15.665 -408.999)" fill="#0d64ae"/><path d="M129.478,516.639c-21.725-14.4-46.473-8.222-69.353.008-2.023.728-1.152,3.982.894,3.246,21.974-7.9,45.735-14.278,66.76-.347C129.591,520.747,131.278,517.833,129.478,516.639Z" transform="translate(-20.01 -421.854)" fill="#0d64ae"/><path d="M118.607,501.778a72.849,72.849,0,0,0-61.651,4.41c-1.9,1.04-.2,3.948,1.7,2.908a69.547,69.547,0,0,1,59.054-4.071C119.742,505.786,120.62,502.534,118.607,501.778Z" transform="translate(-22.938 -433.231)" fill="#0d64ae"/></g><g transform="translate(179.232 973.151)"><path d="M244.726,441.037c-9.637-19.2-27.69-23.671-47.268-27.982-6.391-1.407-13.262-2.678-19.077-5.813-.724-.391-1.573-.845-2.455-1.346a1.613,1.613,0,0,0-.73-1.425,16.891,16.891,0,0,1-5.951-6.89q-.6-4.583-1.2-9.164a16.65,16.65,0,0,1,9.359-12.2,1.425,1.425,0,0,0,.815-.965l.748-.547c16.157-7.281,41.447,1.156,56.357,8.015a1.614,1.614,0,0,0,2.727-.156q3.409-6.286,6.823-12.571c1.79-3.3,6.433-8.887,6.821-12.573.318-3.013.225-2.759-2.573-4.742-12.595-8.931-30.774-12.009-46.086-12.571q1.165-15.836,2.332-31.666a1.7,1.7,0,0,0-1.683-1.685q-17.782.484-35.569.963a1.711,1.711,0,0,0-1.683,1.683q-.03,15.179-.061,30.36c-38.5,5.809-57.213,51.414-30.668,81.36,16.91,19.081,44.983,13.789,63.33,29.525,10.92,9.365,14.655,25.685.951,34.758-6.354,4.205-15.048,5.533-22.441,6.129-18.069,1.46-35.834-2.147-52.349-9.4a1.708,1.708,0,0,0-1.486.039,1.786,1.786,0,0,0-2.512.373,117.734,117.734,0,0,0-16.259,31.666,1.422,1.422,0,0,0,.651,1.778c-1.263.43-1.918,2.279-.414,2.978A122.214,122.214,0,0,0,145.54,530.3c6.008.562,19.434-1.975,23.529,1.644,4.647,4.1,2.1,23.809,1.993,29.584a1.706,1.706,0,0,0,1.685,1.683l34.654.365a1.7,1.7,0,0,0,1.683-1.683q-.937-18.187-1.875-36.374a1.659,1.659,0,0,0,1.225.651C253.6,529.753,260.1,471.669,244.726,441.037Zm-36.293,81.77a1.363,1.363,0,0,0-1.452.837c-.671-1.488-3.3-1.292-3.206.633q.626,12.1,1.249,24.184c.57,11.052-1.8,11.707-12.477,11.6-6.332-.067-14.454,2-18.017-4.112-1.632-2.8-.024-10.813-.1-13.966-.114-4.657-.33-9.3-.574-13.958-.043-.823-.74-1.8-1.683-1.683a118.412,118.412,0,0,1-65.067-10.174,1.6,1.6,0,0,0,1.073-1.054,114.484,114.484,0,0,1,15.371-30.04c21.628,9.485,49.816,15.15,72.561,5.928,16.009-6.492,21.936-22.682,11.1-36.952-16.245-21.394-47.87-14.41-66.371-32.416-28.329-27.566-11.155-73.193,26.741-78.676a1.36,1.36,0,0,0,.845-.444,1.534,1.534,0,0,0,1.306-1.563q.03-14.951.059-29.9,16.037-.435,32.077-.868-1.116,15.155-2.234,30.307a1.727,1.727,0,0,0,1.176,2.9,100.383,100.383,0,0,1,38.971,8.37c6.427,2.873,8.311,5.245,4.736,11.829q-4.276,7.883-8.556,15.766c-17.948-8.082-46.226-16.309-64.218-4.951-13.4,8.461-11.891,23.965.1,32.726,22.053,16.111,53.76,6.283,69.078,33.8C256.725,469.323,251.46,526.217,208.434,522.807Z" transform="translate(-104.304 -306.76)" fill="#0d64ae"/></g><g transform="translate(1847.329 2039.759)"><path d="M902.788,824.049c.46-10.565.631-21.133.62-31.706a1.7,1.7,0,0,0-1.683-1.683c-3.891.156-7.741.446-11.575.819,0-.069.006-.142,0-.211-.3-6.529-2.1-13.337-3.126-19.795a1.3,1.3,0,0,0-.892-1.113,1.526,1.526,0,0,0-1.288-.62c-40.311.264-79.633.525-119.946.787.055-.168,1.1-.339,1.1-.547V728.83c0-.051-1.016-.085-1.018-.134,5.405-.083,10.316-.2,15.719-.414,28.639-1.121,80.276,1.539,72.82-41.747-5.178-30.078-37.359-43.515-63.245-31,0-12.441-7.68-24.245-20.3-27.856-7.275-2.084-15.117-.663-21.617,3.009a33.029,33.029,0,0,0-10.525,9.294c-.846,1.16-3.364,7.583-4.416,7.8-1.77.369-13.361-7.475-16.889-8.039a29.314,29.314,0,0,0-21.113,4.536c-11.969,8.282-14.6,24.142-9.185,36.8-22.325-10.377-42.606,19.024-22.076,35.674,11.224,9.1,27.741,9.444,41.426,10.4,18.327,1.273,37.353,1.8,55.724,1.6,0,.026.633.045.633.073v41.149c0,.217-.592.4-.531.568-46.148.3-92.619.6-138.766.9-1.052-.535-2.626-.1-2.468,1.367a212.263,212.263,0,0,1,1.089,27.568,1.5,1.5,0,0,0-.823,1.843l.764,2.644a1.749,1.749,0,0,0,.2.414c-3.712-.408-7.425-.872-11.135-1.425a1.724,1.724,0,0,0-3.258.677q-1,25.942-.837,51.9a1.712,1.712,0,0,0,2.131,1.624c8.41-1.287,18.55.051,26.7-1.792,2.881-.651,3.315-.588,4.712-3.327,1.829-3.593-.256-10.438-.292-14.509a153.46,153.46,0,0,1,2.757-29.515,1.713,1.713,0,0,0-1.624-2.131q-8.327-.371-16.565-1.21a1.655,1.655,0,0,0,.5-1.152,212.336,212.336,0,0,0-.851-29.614l69.568-.452a1.451,1.451,0,0,0-.028.318,170.64,170.64,0,0,1,1.075,21.563c-5.034.253-10.1,1.062-13.3,1.068a1.59,1.59,0,0,0-1.62,1.656,1.662,1.662,0,0,0-.458,1q-2.555,28.409-2.465,56.915a1.709,1.709,0,0,0,1.683,1.683c9.416.047,20.679,1.857,29.827-.428a1.683,1.683,0,0,0,1.176-1.174c2.212-7.915.665-17.577.663-25.825l0-16.236c0-3.749,1.411-10.357-.2-13.745-1.825-3.824-6.61-4.9-11.928-4.972a170.892,170.892,0,0,0-1.077-21.506,1.738,1.738,0,0,0-.108-.339l108.574-.706a1.349,1.349,0,0,0-.25,1.006,117.008,117.008,0,0,1,.687,21.528,1.563,1.563,0,0,0,.075.521q-5.079-.2-10.154-.4c0-.347-.008-.693-.01-1.04-.024-2.165-3.392-2.172-3.368,0l.318,30.141c.075,7.05-2.163,19.213.331,25.952,1.054,2.849.7,2.561,3.621,3.552,7.161,2.427,19.4-.034,26.838-.073a1.706,1.706,0,0,0,1.683-1.683l-.02-54.08a1.712,1.712,0,0,0-1.683-1.683q-7.217-.286-14.436-.568a1.75,1.75,0,0,0,.17-.643,116.815,116.815,0,0,0-.687-21.528,1.717,1.717,0,0,0-.521-1.024l76.271-.495,1.429,9.039c.14.878.72,7.449,1.373,9.681-4.2.479-8.38,1.07-12.577,1.809a1.364,1.364,0,0,0-1.178,1.622c-4.623,4.225-3.094,10.58-2.942,16.7q.5,20.039,1,40.074a1.72,1.72,0,0,0,1.685,1.685c7.342.239,24.04,4.659,28.331-2.328C904.181,846.246,902.515,830.332,902.788,824.049Zm-264.16-14.016a154.577,154.577,0,0,0-2.382,34.044c.16,3.343,1.375,6.46-2.021,8.844-1.567,1.1-7.563,0-9.446.081a150.863,150.863,0,0,0-15.213,1.5q-.115-23.643.752-47.268Q624.42,809.3,638.628,810.032Zm57.876-9.393c4.755.367,8.167.2,9.9,4.976.852,2.346,0,6.76,0,9.278,0,8.921,4.43,36.522-5.5,40.41-2.411.947-16.048,1.172-18.238-.091-4.848-2.8-2.843-11.044-2.727-15.875.31-12.921,1.113-25.814,2.259-38.687C686.944,800.588,691.806,800.276,696.5,800.639Zm9.089-76.851c-11.237-.785-23.446-1.083-33.73-6.212-23.844-11.9-8.286-47.469,16.042-31.749a1.623,1.623,0,0,0,2.451-1.583,1.574,1.574,0,0,0,.217-1.9c-15.535-28.085,21.362-53.883,42.469-29.336a1.7,1.7,0,0,0,2.812-.742c3.765-12.852,15.543-23.828,29.7-21.766a24.914,24.914,0,0,1,21.222,26.834,1.646,1.646,0,0,0-.184,2.66c.347,1.618,2.922,2.129,3.22.233.039-.255.051-.509.083-.764,26.613-14.292,61.789,2.9,60.643,35.285-1.186,33.566-46.521,29.239-70.328,30.17A686.324,686.324,0,0,1,705.593,723.788ZM811.3,800.274c8.8.345,10.121,1.292,10.123,10.046q0,9.011.006,18.027c0,4.471,2.133,16.611.008,20.279-2.5,4.31-11.448,3.552-15.908,2.914-3.87-.556-7.719-.619-9.608-5.286-.908-2.242-.073-6.829-.1-9.276l-.393-37.327Zm84.4,48.571c-3.27,2.877-12.283,3.106-16.812,1.715-6.346-1.946-4.755-8.108-4.9-14.1l-.444-17.81c-.118-4.777-2.5-17.786,1.817-21.084a1.709,1.709,0,0,0,.584-.858c2.236-.472,5.639-1.391,9.138-2.125a1.579,1.579,0,0,0,1.109,1.249c1.922.616,3.074-.529,3.609-2.07,3.035-.389,5.76-.4,7.38.45,4.931,2.587,2.808,11.541,2.7,16.255C899.672,819.254,902.21,843.12,895.7,848.845Z" transform="translate(-606.164 -626.718)" fill="#0d64ae"/></g><path d="M185.536,343.333l-27.181-70.349c-.347-.894-1.521-1.723-2.476-1.006Q140.1,283.86,123.932,295.193a1.8,1.8,0,0,0-1.863,1.3q-11.922,8.351-24.02,16.459c-1.263-.8-3.118.357-2.6,1.742-1.069.71-2.123,1.435-3.191,2.141a5.034,5.034,0,0,1-.148-2.924,1.663,1.663,0,0,0-1.638-2.068q-6.463-14.16-12.927-28.316a1.7,1.7,0,0,0-2.905,0q-6.928,11.694-13.858,23.392a1.646,1.646,0,0,0-.485.819q-14.349,24.221-28.7,48.446a1.7,1.7,0,0,0,.6,2.3l24.125,10.683c.122.148.237.3.361.45a1.354,1.354,0,0,0,1.64.436l50.122,22.2a1.711,1.711,0,0,0,2.532-1.454,90.2,90.2,0,0,0-.578-21.248c-.679-4.329-2.358-7.054,1.435-10.219,2.028-1.691,12.9-2.476,15.539-2.982q5.222-1,10.44-2.005h0a1.721,1.721,0,0,0,3.118-.6l43.421-8.339A1.688,1.688,0,0,0,185.536,343.333Zm-27.516-61.916c5.249,6.516,7.63,19.746,10.679,27.637,3.031,7.846,8.242,16.865,9.708,25.123.649,3.654,1.833,5.294.777,6.9C167.078,322.609,154.9,304.209,141.028,287,146.618,282.264,153.266,275.514,158.021,281.416ZM37.2,353.34c-.063-1.36,1.831-4.081,3.439-6.308A175.442,175.442,0,0,0,52.4,364.277C45.682,361.84,37.432,358.373,37.2,353.34Zm22.122,13.493c-.253-.112-.554-.231-.856-.353A170.57,170.57,0,0,1,43.024,344.5a1.633,1.633,0,0,0-.355-.393q2.792-4.711,5.582-9.424,8.312,18.026,18.116,35.275Zm25.417,11.255L69.2,371.209a1.575,1.575,0,0,0,.517-2.153q-10.286-18.023-18.933-36.868a1.424,1.424,0,0,0-.651-.685q.255-.435.513-.866,2.543-4.288,5.081-8.578a397.567,397.567,0,0,0,29.211,56.128C84.876,378.155,84.795,378.115,84.736,378.088Zm6.04,3.131a1.3,1.3,0,0,0-.085-.217,392.417,392.417,0,0,1-32.408-61.44,1.7,1.7,0,0,0-.631-.752q2.147-3.625,4.3-7.254,21.079,37.94,43.227,75.26C101.412,386.57,95.459,383.672,90.776,381.219Zm17.613,4.418Q85.57,347.2,63.875,308.119c1.1-2.127,2.691-5.272,4.388-8.349Q87.222,328.385,106.177,357l-.41.079a1.7,1.7,0,0,0-1.176,2.07C105.82,363.586,111.229,381.3,108.389,385.637Zm1.233-29.3a1.613,1.613,0,0,0-.235-.58Q90.193,326.783,71,297.807a1.614,1.614,0,0,0-1.192-.746c2.326-3.954,4.651-7.2,6.083-7.076,3.171.266,11.151,22.4,12.386,25.1a1.61,1.61,0,0,0,.375.513,8.472,8.472,0,0,0,2.429,5.568,1.686,1.686,0,0,0,2.832-1.395c1.146-.754,2.271-1.541,3.414-2.3q12.831,17.789,24.111,36.595Q115.528,355.206,109.622,356.337Zm15.342-2.946Q113.37,333.939,100.1,315.6c3.179-2.121,6.324-4.29,9.489-6.433q13.16,21.061,26.321,42.124Q130.44,352.338,124.964,353.391Zm14.493-2.784q-13.54-21.666-27.076-43.334,5.572-3.8,11.109-7.646,14.954,24.151,29.912,48.3Zm23.29-4.473q-2.9.56-5.807,1.115Q141.6,322.479,126.257,297.7q6.107-4.267,12.151-8.627c13.893,17.2,26.031,35.636,38.136,54.108-.264.152-.539.3-.848.464C172.221,345.459,166.7,345.376,162.747,346.135Z" transform="translate(0 549.533)" fill="#0d64ae"/><path d="M137.467,413.327c.032-18.88-18.15-32.718-35.972-36.508-21.463-4.562-43.857,5.17-55.6,23.61-12.782,20.077-6.454,41.755,12.125,55.455,20.014,14.76,46.272,13.248,65.919-1.113,1.731-1.267.055-4.189-1.7-2.907-15.973,11.677-36.956,15.144-55.027,5.754-19.635-10.2-31.427-31.039-20.371-52.132a50.169,50.169,0,0,1,41.54-26.417c20.849-.854,50.179,14.322,45.321,39.164a1.645,1.645,0,0,0,.12.989c-3.049,8.412-9.276,16.942-19.282,13.984-7.818-2.311-7.873-13.065-6.885-22.548a1.422,1.422,0,0,0,.276-2c-.014-.02-.03-.037-.045-.057.45-3.769.989-7.218,1.17-9.669.158-2.159-3.21-2.151-3.366,0-.012.164-.036.353-.051.521a1.745,1.745,0,0,0-2.909,1.184c-.03.781-.047,1.565-.055,2.348a22.557,22.557,0,0,0-22.124-3.877c-9.831,3.7-17,15.279-14.227,25.768,2.828,10.687,15.75,12.956,24.8,9.162,7.332-3.072,10.93-7.922,12.771-13.7.3,7.954,2.774,14.933,11.312,16.468,13.337,2.4,20.764-10.495,23.3-21.54A1.632,1.632,0,0,0,137.467,413.327ZM96.847,426.2c-6.942,7.042-23.446,10.411-27.272-2.214-2.478-8.173,3.5-17.457,10.59-21.05,7.713-3.909,16.743-1.346,22.479,4.525C102.573,414.262,102.068,420.9,96.847,426.2Z" transform="translate(8.036 772.685)" fill="#0d64ae"/><g transform="translate(1456.918 839.924)"><path d="M728.965,376.551c-2.167-.059-2.167,3.309,0,3.368,34.784.941,46.615-38.4,31.307-64.877-19.3-33.4-67.4-43.241-102.706-38-19.521,2.9-37.444,13.846-46.753,29.626a1.606,1.606,0,0,0-.168-.065c-37.58-6.3-95.654-6.383-116.854,32.959-7.808,14.493-4.248,30.366,7.38,41.582,14.712,14.2,35.988,18.292,55.6,15.281,2.182,10.2-6.255,16.468-13.611,21.536a1.7,1.7,0,0,0,.852,3.139,44.039,44.039,0,0,0,43.223-24.452c17.279-1.2,35.22-3.4,47.13-17.345a1.684,1.684,0,0,0,.221-1.928c19.665,8.718,45.179,8.317,65.732,6.462a44.918,44.918,0,0,0,35.613,23.552,1.692,1.692,0,0,0,1.454-2.532A55.183,55.183,0,0,1,727.276,379.6c-.28-2.119-3.651-2.145-3.368,0a58.375,58.375,0,0,0,8.532,23.915,41.6,41.6,0,0,1-30.376-23.692c-.758-1.634-2.865-.716-3.039.76-29.132,2.6-67.579,3.765-84.73-25.07-19.472-32.738,5.7-67.788,39.328-74.424,28.854-5.7,63.026-.17,86.918,17.479,13.142,9.708,23.6,24.782,23.635,41.718C764.214,360.163,749.275,377.1,728.965,376.551ZM606.176,345.2c4.426,15.565,14.187,25.316,26.463,31.266a1.528,1.528,0,0,0-.649.458c-11.456,13.41-28.58,15.253-45.141,16.388a1.389,1.389,0,0,0-2.021.663,40.8,40.8,0,0,1-35.792,23.854c7.346-5.7,13.428-12.857,10.861-22.945a1.485,1.485,0,0,0-.91-1.066,1.725,1.725,0,0,0-1.8-.827c-19.026,3.236-41.451-.789-55.013-15.661-16.768-18.39-7.538-40.79,10.8-53.654,27.662-19.405,64.181-19.207,96.168-13.921C604.019,320.016,602.45,332.09,606.176,345.2Z" transform="translate(-489.624 -275.716)" fill="#0d64ae"/><path d="M577.693,321.377a325.2,325.2,0,0,0-35.974-.977c-11.723.377-26.277,4.274-37.635.989-2.084-.6-2.974,2.646-.894,3.246,10.6,3.066,22.13-.091,32.994-.641a321.546,321.546,0,0,1,41.51.75C579.855,324.913,579.843,321.545,577.693,321.377Z" transform="translate(-476.901 -229.949)" fill="#0d64ae"/><path d="M562.121,308.992q-27.572,1.654-55.146,3.307c-2.153.13-2.17,3.5,0,3.368q27.572-1.654,55.146-3.307C564.274,312.23,564.29,308.862,562.121,308.992Z" transform="translate(-473.461 -241.527)" fill="#0d64ae"/><path d="M661.944,311.938a1018.339,1018.339,0,0,0-102.852-.924c-2.157.089-2.169,3.457,0,3.368a1018.338,1018.338,0,0,1,102.852.922C664.11,315.431,664.1,312.065,661.944,311.938Z" transform="translate(-419.911 -240.349)" fill="#0d64ae"/><path d="M661.241,297.044q-49.7-.021-99.383,1.2c-2.161.053-2.169,3.418,0,3.366q47.912-1.18,95.839-1.184a1.761,1.761,0,0,0,2.287.732l2.107-.981C663.658,299.451,662.816,297.044,661.241,297.044Z" transform="translate(-417.07 -253.8)" fill="#0d64ae"/></g><g transform="translate(52.591 412.571)"><path d="M181.238,147.911c-.065-.933-.247-1.648-1.21-1.683-36.205-1.283-72.139-1.922-108.185-1.926-.034-.176-.069-.353-.1-.527-.292-1.517-2.013-1.476-2.834-.568a1.743,1.743,0,0,0-2.924.6q-10.246,25-20.5,50c-.807.128-1.616.225-2.425.361-2.133.355-1.227,3.6.9,3.246l.1-.014A1258.312,1258.312,0,0,1,55.7,339.064a1.722,1.722,0,0,0,1.685,1.683q64.232,3.06,128.535,3.935A1.707,1.707,0,0,0,187.6,343Q187.827,245.362,181.238,147.911ZM67.3,149.406a1.684,1.684,0,0,0,1.973-.706q4.081,21.094,8.161,42.187a245.191,245.191,0,0,0-28.1,2.35ZM180.344,341.24c-3.013,1.865-12.767-.2-16.78-.28q-18.169-.347-36.337-.876T90.9,338.847c-8.218-.322-27.856,2.8-31.976-5.288-1.873-3.676-.387-12.062-.572-16.506q-.4-9.626-.957-19.245-1.028-17.861-2.577-35.688c-1.9-21.8-4.444-43.535-7.463-65.209a240.1,240.1,0,0,1,32.1-2.729,1.709,1.709,0,0,0,1.624-2.131q-4.294-22.192-8.587-44.387c21.934.008,45.921.245,69.066.785,5.5.128,10.756.272,16.251.43,4.023.116,12.595-1.336,16.368.521,7.824,3.852,5.564,26.954,5.993,34.7q3.923,71.014,4.1,142.166C184.285,332.047,186.031,337.716,180.344,341.24Z" transform="translate(-41.843 -142.571)" fill="#0d64ae"/><path d="M87.282,186.156l-26.4,5.065a1.691,1.691,0,0,0-.744,2.812A102.68,102.68,0,0,0,84.871,208.7c2,.835,2.867-2.421.894-3.248a96.7,96.7,0,0,1-20.4-11.679q11.4-2.187,22.808-4.375C90.3,188.994,89.4,185.75,87.282,186.156Z" transform="translate(-23.558 -97.823)" fill="#0d64ae"/><path d="M97.832,177.853c-1.306-4.775-4.706-4.848-7.745-1.835-1.292,1.277-2.074,18.74-2.149,19.27q-1.055,7.281-2.47,14.5a322.7,322.7,0,0,1-8.5,33.245c-.641,2.074,2.607,2.962,3.246.894a321.019,321.019,0,0,0,8.949-35.656c.971-5.2,4.988-18.965,4.663-27.2a6.249,6.249,0,0,0,3.57-1.588A1.652,1.652,0,0,0,97.832,177.853Z" transform="translate(-5.833 -110.307)" fill="#0d64ae"/><path d="M115.41,199.152a76.061,76.061,0,0,0-22.72-13c-2.04-.742-2.918,2.51-.894,3.246a71.091,71.091,0,0,1,19.349,10.7L86.99,213.3c-1.9,1.038-.2,3.948,1.7,2.905l26.38-14.41A1.7,1.7,0,0,0,115.41,199.152Z" transform="translate(3.692 -97.9)" fill="#0d64ae"/></g><path d="M432.523,629.009a1.7,1.7,0,0,0-2.875-1.19,640.761,640.761,0,0,1-65.059,56.931,1.712,1.712,0,0,0,0,2.908c3.753,2.348,15.541,7.127,17.492,10.948,2.948,5.781-1.419,10.1-4.013,14.935l-19.454,36.254c-2.094,3.905-4.493,13.207-9.819,13.256-2.336.02-10.217-9.323-12.336-11.111a279.005,279.005,0,0,0-25.038-18.7,1.7,1.7,0,0,0-2.474,1.006l-34.817,95.5a1.35,1.35,0,0,0,.306,1.506,1.654,1.654,0,0,0,1.135,1.689,202.324,202.324,0,0,1,30.889,13.7,1.7,1.7,0,0,0,2.474-1.006c3.41-11.6,7.019-23.128,10.949-34.561q2.524-7.347,5.2-14.643c.748-2.036,3.737-13.337,5.5-14.529,8.838-5.979,23.288,17.137,34.255,13.122,5.051-1.849,7.9-13.583,10.034-17.938q8.248-16.8,16.5-33.6,3.534-7.2,7.07-14.4c1.219-2.484,4.852-12.828,7.07-14.4,4.947-3.506,19.247,4.8,24.993,6.449a1.7,1.7,0,0,0,2.131-1.624Q433.761,674.258,432.523,629.009Zm-3.064,82.518c-2.528,9.894-15.77-.207-22.191-3.948a1.7,1.7,0,0,0-2.305.6q-13.549,27.6-27.1,55.2c-4.345,8.848-8.952,27.414-22.114,25.774-7.177-.892-17.895-10.113-24.032-13.982a1.708,1.708,0,0,0-2.474,1.008c-6.656,16.869-12.806,33.917-18.282,51.207-3.126,9.868-2.5,16.032-13.666,10.707a199.069,199.069,0,0,0-19.716-8.009q12.725-34.908,25.456-69.818c1.734-4.759,2.956-10.653,5.5-15.077,4.688-8.161,5.326-6.49,12.871-.914a269.159,269.159,0,0,1,28.4,24.47,1.7,1.7,0,0,0,2.644-.339q18.153-33.838,36.311-67.675a1.72,1.72,0,0,0-.6-2.3c-4.483-2.806-18.459-8.416-17.623-14.01.558-3.739,16.816-13.38,20.113-16.141,13.386-11.21,26.194-23.057,38.594-35.34.438,17.317.673,34.638.582,51.963C429.774,693.03,431.463,703.694,429.46,711.527Z" transform="translate(488.953 1413.678)" fill="#0d64ae"/><g transform="translate(498.942 537.143)"><path d="M262.152,178.206c-31.86-4.317-66.448,13.372-75.584,45.339-8.518,29.8,10.415,60.641,41.885,63.386a1.425,1.425,0,0,0,.955-.249c29.813,5.162,60.051-10.334,70.006-39.869C309.657,216.412,295.8,182.764,262.152,178.206Zm34.014,67.713c-9.7,28.481-39.464,43.217-68.313,37.11a1.631,1.631,0,0,0-1.373.3c-32.728-4.209-47.087-40.3-32.917-68.609,12.309-24.592,41.649-36.641,68.121-33.053C293.367,185.959,305.788,217.669,296.165,245.919Z" transform="translate(-184.526 -177.563)" fill="#0d64ae"/><path d="M239.551,187.676c-19.537-1.012-40,12.279-42.939,32.369-3.009,20.561,13.065,33.5,31.23,37.365a1.607,1.607,0,0,0,1.4.318l.16-.039c.671.124,1.336.264,2.009.363a1.817,1.817,0,0,0,2-1.289c17.982-4.337,36.3-11.654,39.289-32.82C275.462,204.389,258.078,188.637,239.551,187.676Zm26.185,46.236c-8,14.221-21.922,17.167-36.431,20.36-17.193-3.491-33.332-15.344-29.127-35.583,3.637-17.512,22.262-28.679,39.372-27.645C260.931,192.336,276.983,213.931,265.736,233.912Z" transform="translate(-172.482 -167.227)" fill="#0d64ae"/><path d="M375.255,182.9c-10.863-.024-25.34-2.6-35.841.182-8.4,2.228-10.616,7.917-14.43,15.456-12.506,24.709-25.4,49.186-39.157,73.226a1466.576,1466.576,0,0,1-90.6,139.1,1.428,1.428,0,0,0,.77,2.259,1.714,1.714,0,0,0,.866,3.13,308.007,308.007,0,0,1,40.311,3.757,1.7,1.7,0,0,0,1.184-.243,1.536,1.536,0,0,0,1.993-.663Q308.53,302.273,376.709,185.436A1.7,1.7,0,0,0,375.255,182.9Zm-9.8,15.14q-9.045,15.5-18.09,31-18.09,31-36.177,62-36.678,62.851-73.352,125.7a314.631,314.631,0,0,0-40.1-3.808,1.7,1.7,0,0,0,.4-.361q39.932-54.412,74.844-112.242,17.387-28.914,33.41-58.62,8.625-15.988,16.845-32.193c2.21-4.361,4.237-9.876,6.969-13.925,5.393-8,13.011-9.389,21.942-9.369,2.261,0,17.062-1.389,17.98.039C372.484,189.937,367.24,194.982,365.454,198.043Z" transform="translate(-173.859 -173.216)" fill="#0d64ae"/><path d="M286.046,253.188c-26.877,5.111-48.014,33.1-45.327,60.207,2.589,26.108,25.606,44.508,51.438,39.377-1.129,1.081-.239,3.445,1.553,2.853,24.156-8.009,42.531-30.664,41.893-56.775C334.968,272.94,313.714,247.927,286.046,253.188Zm8.262,98.637a1.761,1.761,0,0,0-1.93-2.488c-26.664,5.987-49.169-15.616-48.577-42.1.531-23.779,21.046-48.046,45.007-50.9,28.225-3.362,46.246,24.711,42.88,50.311C328.926,327.659,313.953,344.723,294.308,351.825Z" transform="translate(-127.024 -100.583)" fill="#0d64ae"/><path d="M311.665,290.556c-1.92-16.66-16.642-29.507-33.537-27.761a31.836,31.836,0,0,0-28.554,32.966c.5,16.62,13.887,29.594,29.835,27.4A1.428,1.428,0,0,0,281,324.55C298.492,323.382,313.79,308.964,311.665,290.556Zm-26.2,29.949a1.569,1.569,0,0,0-2.05-1.687c-18.229,6.018-32.142-10.4-30.157-27.753a28.222,28.222,0,0,1,27.911-25.076c13.015-.073,23.773,9.568,26.666,22.015C311.472,303.628,299.994,317.3,285.469,320.5Z" transform="translate(-117.704 -90.148)" fill="#0d64ae"/></g></g></svg>